G04 #@! TF.GenerationSoftware,KiCad,Pcbnew,(5.1.4)-1*
G04 #@! TF.CreationDate,2020-10-13T06:17:52+02:00*
G04 #@! TF.ProjectId,BreadBoard PCB 830,42726561-6442-46f6-9172-642050434220,rev?*
G04 #@! TF.SameCoordinates,Original*
G04 #@! TF.FileFunction,Legend,Top*
G04 #@! TF.FilePolarity,Positive*
%FSLAX46Y46*%
G04 Gerber Fmt 4.6, Leading zero omitted, Abs format (unit mm)*
G04 Created by KiCad (PCBNEW (5.1.4)-1) date 2020-10-13 06:17:52*
%MOMM*%
%LPD*%
G04 APERTURE LIST*
%ADD10C,0.120000*%
%ADD11C,0.200000*%
%ADD12C,0.250000*%
%ADD13C,0.050000*%
%ADD14C,0.010000*%
%ADD15C,0.100000*%
G04 APERTURE END LIST*
D10*
X73660000Y-108450000D02*
X198120000Y-108450000D01*
X73660000Y-107450000D02*
X198120000Y-107450000D01*
D11*
X190261904Y-123912380D02*
X189785714Y-123912380D01*
X189738095Y-124388571D01*
X189785714Y-124340952D01*
X189880952Y-124293333D01*
X190119047Y-124293333D01*
X190214285Y-124340952D01*
X190261904Y-124388571D01*
X190309523Y-124483809D01*
X190309523Y-124721904D01*
X190261904Y-124817142D01*
X190214285Y-124864761D01*
X190119047Y-124912380D01*
X189880952Y-124912380D01*
X189785714Y-124864761D01*
X189738095Y-124817142D01*
X191214285Y-123912380D02*
X190738095Y-123912380D01*
X190690476Y-124388571D01*
X190738095Y-124340952D01*
X190833333Y-124293333D01*
X191071428Y-124293333D01*
X191166666Y-124340952D01*
X191214285Y-124388571D01*
X191261904Y-124483809D01*
X191261904Y-124721904D01*
X191214285Y-124817142D01*
X191166666Y-124864761D01*
X191071428Y-124912380D01*
X190833333Y-124912380D01*
X190738095Y-124864761D01*
X190690476Y-124817142D01*
X63738095Y-123912380D02*
X63261904Y-123912380D01*
X63214285Y-124388571D01*
X63261904Y-124340952D01*
X63357142Y-124293333D01*
X63595238Y-124293333D01*
X63690476Y-124340952D01*
X63738095Y-124388571D01*
X63785714Y-124483809D01*
X63785714Y-124721904D01*
X63738095Y-124817142D01*
X63690476Y-124864761D01*
X63595238Y-124912380D01*
X63357142Y-124912380D01*
X63261904Y-124864761D01*
X63214285Y-124817142D01*
X88709523Y-124912380D02*
X88138095Y-124912380D01*
X88423809Y-124912380D02*
X88423809Y-123912380D01*
X88328571Y-124055238D01*
X88233333Y-124150476D01*
X88138095Y-124198095D01*
X89614285Y-123912380D02*
X89138095Y-123912380D01*
X89090476Y-124388571D01*
X89138095Y-124340952D01*
X89233333Y-124293333D01*
X89471428Y-124293333D01*
X89566666Y-124340952D01*
X89614285Y-124388571D01*
X89661904Y-124483809D01*
X89661904Y-124721904D01*
X89614285Y-124817142D01*
X89566666Y-124864761D01*
X89471428Y-124912380D01*
X89233333Y-124912380D01*
X89138095Y-124864761D01*
X89090476Y-124817142D01*
X177561904Y-123912380D02*
X177085714Y-123912380D01*
X177038095Y-124388571D01*
X177085714Y-124340952D01*
X177180952Y-124293333D01*
X177419047Y-124293333D01*
X177514285Y-124340952D01*
X177561904Y-124388571D01*
X177609523Y-124483809D01*
X177609523Y-124721904D01*
X177561904Y-124817142D01*
X177514285Y-124864761D01*
X177419047Y-124912380D01*
X177180952Y-124912380D01*
X177085714Y-124864761D01*
X177038095Y-124817142D01*
X178228571Y-123912380D02*
X178323809Y-123912380D01*
X178419047Y-123960000D01*
X178466666Y-124007619D01*
X178514285Y-124102857D01*
X178561904Y-124293333D01*
X178561904Y-124531428D01*
X178514285Y-124721904D01*
X178466666Y-124817142D01*
X178419047Y-124864761D01*
X178323809Y-124912380D01*
X178228571Y-124912380D01*
X178133333Y-124864761D01*
X178085714Y-124817142D01*
X178038095Y-124721904D01*
X177990476Y-124531428D01*
X177990476Y-124293333D01*
X178038095Y-124102857D01*
X178085714Y-124007619D01*
X178133333Y-123960000D01*
X178228571Y-123912380D01*
X53625714Y-124912380D02*
X53054285Y-124912380D01*
X53340000Y-124912380D02*
X53340000Y-123912380D01*
X53244761Y-124055238D01*
X53149523Y-124150476D01*
X53054285Y-124198095D01*
X100838095Y-124007619D02*
X100885714Y-123960000D01*
X100980952Y-123912380D01*
X101219047Y-123912380D01*
X101314285Y-123960000D01*
X101361904Y-124007619D01*
X101409523Y-124102857D01*
X101409523Y-124198095D01*
X101361904Y-124340952D01*
X100790476Y-124912380D01*
X101409523Y-124912380D01*
X102028571Y-123912380D02*
X102123809Y-123912380D01*
X102219047Y-123960000D01*
X102266666Y-124007619D01*
X102314285Y-124102857D01*
X102361904Y-124293333D01*
X102361904Y-124531428D01*
X102314285Y-124721904D01*
X102266666Y-124817142D01*
X102219047Y-124864761D01*
X102123809Y-124912380D01*
X102028571Y-124912380D01*
X101933333Y-124864761D01*
X101885714Y-124817142D01*
X101838095Y-124721904D01*
X101790476Y-124531428D01*
X101790476Y-124293333D01*
X101838095Y-124102857D01*
X101885714Y-124007619D01*
X101933333Y-123960000D01*
X102028571Y-123912380D01*
X164814285Y-124245714D02*
X164814285Y-124912380D01*
X164576190Y-123864761D02*
X164338095Y-124579047D01*
X164957142Y-124579047D01*
X165814285Y-123912380D02*
X165338095Y-123912380D01*
X165290476Y-124388571D01*
X165338095Y-124340952D01*
X165433333Y-124293333D01*
X165671428Y-124293333D01*
X165766666Y-124340952D01*
X165814285Y-124388571D01*
X165861904Y-124483809D01*
X165861904Y-124721904D01*
X165814285Y-124817142D01*
X165766666Y-124864761D01*
X165671428Y-124912380D01*
X165433333Y-124912380D01*
X165338095Y-124864761D01*
X165290476Y-124817142D01*
X202914285Y-123912380D02*
X202723809Y-123912380D01*
X202628571Y-123960000D01*
X202580952Y-124007619D01*
X202485714Y-124150476D01*
X202438095Y-124340952D01*
X202438095Y-124721904D01*
X202485714Y-124817142D01*
X202533333Y-124864761D01*
X202628571Y-124912380D01*
X202819047Y-124912380D01*
X202914285Y-124864761D01*
X202961904Y-124817142D01*
X203009523Y-124721904D01*
X203009523Y-124483809D01*
X202961904Y-124388571D01*
X202914285Y-124340952D01*
X202819047Y-124293333D01*
X202628571Y-124293333D01*
X202533333Y-124340952D01*
X202485714Y-124388571D01*
X202438095Y-124483809D01*
X203628571Y-123912380D02*
X203723809Y-123912380D01*
X203819047Y-123960000D01*
X203866666Y-124007619D01*
X203914285Y-124102857D01*
X203961904Y-124293333D01*
X203961904Y-124531428D01*
X203914285Y-124721904D01*
X203866666Y-124817142D01*
X203819047Y-124864761D01*
X203723809Y-124912380D01*
X203628571Y-124912380D01*
X203533333Y-124864761D01*
X203485714Y-124817142D01*
X203438095Y-124721904D01*
X203390476Y-124531428D01*
X203390476Y-124293333D01*
X203438095Y-124102857D01*
X203485714Y-124007619D01*
X203533333Y-123960000D01*
X203628571Y-123912380D01*
X126190476Y-123912380D02*
X126809523Y-123912380D01*
X126476190Y-124293333D01*
X126619047Y-124293333D01*
X126714285Y-124340952D01*
X126761904Y-124388571D01*
X126809523Y-124483809D01*
X126809523Y-124721904D01*
X126761904Y-124817142D01*
X126714285Y-124864761D01*
X126619047Y-124912380D01*
X126333333Y-124912380D01*
X126238095Y-124864761D01*
X126190476Y-124817142D01*
X127428571Y-123912380D02*
X127523809Y-123912380D01*
X127619047Y-123960000D01*
X127666666Y-124007619D01*
X127714285Y-124102857D01*
X127761904Y-124293333D01*
X127761904Y-124531428D01*
X127714285Y-124721904D01*
X127666666Y-124817142D01*
X127619047Y-124864761D01*
X127523809Y-124912380D01*
X127428571Y-124912380D01*
X127333333Y-124864761D01*
X127285714Y-124817142D01*
X127238095Y-124721904D01*
X127190476Y-124531428D01*
X127190476Y-124293333D01*
X127238095Y-124102857D01*
X127285714Y-124007619D01*
X127333333Y-123960000D01*
X127428571Y-123912380D01*
X138890476Y-123912380D02*
X139509523Y-123912380D01*
X139176190Y-124293333D01*
X139319047Y-124293333D01*
X139414285Y-124340952D01*
X139461904Y-124388571D01*
X139509523Y-124483809D01*
X139509523Y-124721904D01*
X139461904Y-124817142D01*
X139414285Y-124864761D01*
X139319047Y-124912380D01*
X139033333Y-124912380D01*
X138938095Y-124864761D01*
X138890476Y-124817142D01*
X140414285Y-123912380D02*
X139938095Y-123912380D01*
X139890476Y-124388571D01*
X139938095Y-124340952D01*
X140033333Y-124293333D01*
X140271428Y-124293333D01*
X140366666Y-124340952D01*
X140414285Y-124388571D01*
X140461904Y-124483809D01*
X140461904Y-124721904D01*
X140414285Y-124817142D01*
X140366666Y-124864761D01*
X140271428Y-124912380D01*
X140033333Y-124912380D01*
X139938095Y-124864761D01*
X139890476Y-124817142D01*
X113538095Y-124007619D02*
X113585714Y-123960000D01*
X113680952Y-123912380D01*
X113919047Y-123912380D01*
X114014285Y-123960000D01*
X114061904Y-124007619D01*
X114109523Y-124102857D01*
X114109523Y-124198095D01*
X114061904Y-124340952D01*
X113490476Y-124912380D01*
X114109523Y-124912380D01*
X115014285Y-123912380D02*
X114538095Y-123912380D01*
X114490476Y-124388571D01*
X114538095Y-124340952D01*
X114633333Y-124293333D01*
X114871428Y-124293333D01*
X114966666Y-124340952D01*
X115014285Y-124388571D01*
X115061904Y-124483809D01*
X115061904Y-124721904D01*
X115014285Y-124817142D01*
X114966666Y-124864761D01*
X114871428Y-124912380D01*
X114633333Y-124912380D01*
X114538095Y-124864761D01*
X114490476Y-124817142D01*
X76009523Y-124912380D02*
X75438095Y-124912380D01*
X75723809Y-124912380D02*
X75723809Y-123912380D01*
X75628571Y-124055238D01*
X75533333Y-124150476D01*
X75438095Y-124198095D01*
X76628571Y-123912380D02*
X76723809Y-123912380D01*
X76819047Y-123960000D01*
X76866666Y-124007619D01*
X76914285Y-124102857D01*
X76961904Y-124293333D01*
X76961904Y-124531428D01*
X76914285Y-124721904D01*
X76866666Y-124817142D01*
X76819047Y-124864761D01*
X76723809Y-124912380D01*
X76628571Y-124912380D01*
X76533333Y-124864761D01*
X76485714Y-124817142D01*
X76438095Y-124721904D01*
X76390476Y-124531428D01*
X76390476Y-124293333D01*
X76438095Y-124102857D01*
X76485714Y-124007619D01*
X76533333Y-123960000D01*
X76628571Y-123912380D01*
X152114285Y-124245714D02*
X152114285Y-124912380D01*
X151876190Y-123864761D02*
X151638095Y-124579047D01*
X152257142Y-124579047D01*
X152828571Y-123912380D02*
X152923809Y-123912380D01*
X153019047Y-123960000D01*
X153066666Y-124007619D01*
X153114285Y-124102857D01*
X153161904Y-124293333D01*
X153161904Y-124531428D01*
X153114285Y-124721904D01*
X153066666Y-124817142D01*
X153019047Y-124864761D01*
X152923809Y-124912380D01*
X152828571Y-124912380D01*
X152733333Y-124864761D01*
X152685714Y-124817142D01*
X152638095Y-124721904D01*
X152590476Y-124531428D01*
X152590476Y-124293333D01*
X152638095Y-124102857D01*
X152685714Y-124007619D01*
X152733333Y-123960000D01*
X152828571Y-123912380D01*
X202914285Y-90892380D02*
X202723809Y-90892380D01*
X202628571Y-90940000D01*
X202580952Y-90987619D01*
X202485714Y-91130476D01*
X202438095Y-91320952D01*
X202438095Y-91701904D01*
X202485714Y-91797142D01*
X202533333Y-91844761D01*
X202628571Y-91892380D01*
X202819047Y-91892380D01*
X202914285Y-91844761D01*
X202961904Y-91797142D01*
X203009523Y-91701904D01*
X203009523Y-91463809D01*
X202961904Y-91368571D01*
X202914285Y-91320952D01*
X202819047Y-91273333D01*
X202628571Y-91273333D01*
X202533333Y-91320952D01*
X202485714Y-91368571D01*
X202438095Y-91463809D01*
X203628571Y-90892380D02*
X203723809Y-90892380D01*
X203819047Y-90940000D01*
X203866666Y-90987619D01*
X203914285Y-91082857D01*
X203961904Y-91273333D01*
X203961904Y-91511428D01*
X203914285Y-91701904D01*
X203866666Y-91797142D01*
X203819047Y-91844761D01*
X203723809Y-91892380D01*
X203628571Y-91892380D01*
X203533333Y-91844761D01*
X203485714Y-91797142D01*
X203438095Y-91701904D01*
X203390476Y-91511428D01*
X203390476Y-91273333D01*
X203438095Y-91082857D01*
X203485714Y-90987619D01*
X203533333Y-90940000D01*
X203628571Y-90892380D01*
X190261904Y-90892380D02*
X189785714Y-90892380D01*
X189738095Y-91368571D01*
X189785714Y-91320952D01*
X189880952Y-91273333D01*
X190119047Y-91273333D01*
X190214285Y-91320952D01*
X190261904Y-91368571D01*
X190309523Y-91463809D01*
X190309523Y-91701904D01*
X190261904Y-91797142D01*
X190214285Y-91844761D01*
X190119047Y-91892380D01*
X189880952Y-91892380D01*
X189785714Y-91844761D01*
X189738095Y-91797142D01*
X191214285Y-90892380D02*
X190738095Y-90892380D01*
X190690476Y-91368571D01*
X190738095Y-91320952D01*
X190833333Y-91273333D01*
X191071428Y-91273333D01*
X191166666Y-91320952D01*
X191214285Y-91368571D01*
X191261904Y-91463809D01*
X191261904Y-91701904D01*
X191214285Y-91797142D01*
X191166666Y-91844761D01*
X191071428Y-91892380D01*
X190833333Y-91892380D01*
X190738095Y-91844761D01*
X190690476Y-91797142D01*
X177561904Y-90892380D02*
X177085714Y-90892380D01*
X177038095Y-91368571D01*
X177085714Y-91320952D01*
X177180952Y-91273333D01*
X177419047Y-91273333D01*
X177514285Y-91320952D01*
X177561904Y-91368571D01*
X177609523Y-91463809D01*
X177609523Y-91701904D01*
X177561904Y-91797142D01*
X177514285Y-91844761D01*
X177419047Y-91892380D01*
X177180952Y-91892380D01*
X177085714Y-91844761D01*
X177038095Y-91797142D01*
X178228571Y-90892380D02*
X178323809Y-90892380D01*
X178419047Y-90940000D01*
X178466666Y-90987619D01*
X178514285Y-91082857D01*
X178561904Y-91273333D01*
X178561904Y-91511428D01*
X178514285Y-91701904D01*
X178466666Y-91797142D01*
X178419047Y-91844761D01*
X178323809Y-91892380D01*
X178228571Y-91892380D01*
X178133333Y-91844761D01*
X178085714Y-91797142D01*
X178038095Y-91701904D01*
X177990476Y-91511428D01*
X177990476Y-91273333D01*
X178038095Y-91082857D01*
X178085714Y-90987619D01*
X178133333Y-90940000D01*
X178228571Y-90892380D01*
X164814285Y-91225714D02*
X164814285Y-91892380D01*
X164576190Y-90844761D02*
X164338095Y-91559047D01*
X164957142Y-91559047D01*
X165814285Y-90892380D02*
X165338095Y-90892380D01*
X165290476Y-91368571D01*
X165338095Y-91320952D01*
X165433333Y-91273333D01*
X165671428Y-91273333D01*
X165766666Y-91320952D01*
X165814285Y-91368571D01*
X165861904Y-91463809D01*
X165861904Y-91701904D01*
X165814285Y-91797142D01*
X165766666Y-91844761D01*
X165671428Y-91892380D01*
X165433333Y-91892380D01*
X165338095Y-91844761D01*
X165290476Y-91797142D01*
X152114285Y-91225714D02*
X152114285Y-91892380D01*
X151876190Y-90844761D02*
X151638095Y-91559047D01*
X152257142Y-91559047D01*
X152828571Y-90892380D02*
X152923809Y-90892380D01*
X153019047Y-90940000D01*
X153066666Y-90987619D01*
X153114285Y-91082857D01*
X153161904Y-91273333D01*
X153161904Y-91511428D01*
X153114285Y-91701904D01*
X153066666Y-91797142D01*
X153019047Y-91844761D01*
X152923809Y-91892380D01*
X152828571Y-91892380D01*
X152733333Y-91844761D01*
X152685714Y-91797142D01*
X152638095Y-91701904D01*
X152590476Y-91511428D01*
X152590476Y-91273333D01*
X152638095Y-91082857D01*
X152685714Y-90987619D01*
X152733333Y-90940000D01*
X152828571Y-90892380D01*
X138890476Y-90892380D02*
X139509523Y-90892380D01*
X139176190Y-91273333D01*
X139319047Y-91273333D01*
X139414285Y-91320952D01*
X139461904Y-91368571D01*
X139509523Y-91463809D01*
X139509523Y-91701904D01*
X139461904Y-91797142D01*
X139414285Y-91844761D01*
X139319047Y-91892380D01*
X139033333Y-91892380D01*
X138938095Y-91844761D01*
X138890476Y-91797142D01*
X140414285Y-90892380D02*
X139938095Y-90892380D01*
X139890476Y-91368571D01*
X139938095Y-91320952D01*
X140033333Y-91273333D01*
X140271428Y-91273333D01*
X140366666Y-91320952D01*
X140414285Y-91368571D01*
X140461904Y-91463809D01*
X140461904Y-91701904D01*
X140414285Y-91797142D01*
X140366666Y-91844761D01*
X140271428Y-91892380D01*
X140033333Y-91892380D01*
X139938095Y-91844761D01*
X139890476Y-91797142D01*
X126190476Y-90892380D02*
X126809523Y-90892380D01*
X126476190Y-91273333D01*
X126619047Y-91273333D01*
X126714285Y-91320952D01*
X126761904Y-91368571D01*
X126809523Y-91463809D01*
X126809523Y-91701904D01*
X126761904Y-91797142D01*
X126714285Y-91844761D01*
X126619047Y-91892380D01*
X126333333Y-91892380D01*
X126238095Y-91844761D01*
X126190476Y-91797142D01*
X127428571Y-90892380D02*
X127523809Y-90892380D01*
X127619047Y-90940000D01*
X127666666Y-90987619D01*
X127714285Y-91082857D01*
X127761904Y-91273333D01*
X127761904Y-91511428D01*
X127714285Y-91701904D01*
X127666666Y-91797142D01*
X127619047Y-91844761D01*
X127523809Y-91892380D01*
X127428571Y-91892380D01*
X127333333Y-91844761D01*
X127285714Y-91797142D01*
X127238095Y-91701904D01*
X127190476Y-91511428D01*
X127190476Y-91273333D01*
X127238095Y-91082857D01*
X127285714Y-90987619D01*
X127333333Y-90940000D01*
X127428571Y-90892380D01*
X113538095Y-90987619D02*
X113585714Y-90940000D01*
X113680952Y-90892380D01*
X113919047Y-90892380D01*
X114014285Y-90940000D01*
X114061904Y-90987619D01*
X114109523Y-91082857D01*
X114109523Y-91178095D01*
X114061904Y-91320952D01*
X113490476Y-91892380D01*
X114109523Y-91892380D01*
X115014285Y-90892380D02*
X114538095Y-90892380D01*
X114490476Y-91368571D01*
X114538095Y-91320952D01*
X114633333Y-91273333D01*
X114871428Y-91273333D01*
X114966666Y-91320952D01*
X115014285Y-91368571D01*
X115061904Y-91463809D01*
X115061904Y-91701904D01*
X115014285Y-91797142D01*
X114966666Y-91844761D01*
X114871428Y-91892380D01*
X114633333Y-91892380D01*
X114538095Y-91844761D01*
X114490476Y-91797142D01*
X100838095Y-90987619D02*
X100885714Y-90940000D01*
X100980952Y-90892380D01*
X101219047Y-90892380D01*
X101314285Y-90940000D01*
X101361904Y-90987619D01*
X101409523Y-91082857D01*
X101409523Y-91178095D01*
X101361904Y-91320952D01*
X100790476Y-91892380D01*
X101409523Y-91892380D01*
X102028571Y-90892380D02*
X102123809Y-90892380D01*
X102219047Y-90940000D01*
X102266666Y-90987619D01*
X102314285Y-91082857D01*
X102361904Y-91273333D01*
X102361904Y-91511428D01*
X102314285Y-91701904D01*
X102266666Y-91797142D01*
X102219047Y-91844761D01*
X102123809Y-91892380D01*
X102028571Y-91892380D01*
X101933333Y-91844761D01*
X101885714Y-91797142D01*
X101838095Y-91701904D01*
X101790476Y-91511428D01*
X101790476Y-91273333D01*
X101838095Y-91082857D01*
X101885714Y-90987619D01*
X101933333Y-90940000D01*
X102028571Y-90892380D01*
X88709523Y-91892380D02*
X88138095Y-91892380D01*
X88423809Y-91892380D02*
X88423809Y-90892380D01*
X88328571Y-91035238D01*
X88233333Y-91130476D01*
X88138095Y-91178095D01*
X89614285Y-90892380D02*
X89138095Y-90892380D01*
X89090476Y-91368571D01*
X89138095Y-91320952D01*
X89233333Y-91273333D01*
X89471428Y-91273333D01*
X89566666Y-91320952D01*
X89614285Y-91368571D01*
X89661904Y-91463809D01*
X89661904Y-91701904D01*
X89614285Y-91797142D01*
X89566666Y-91844761D01*
X89471428Y-91892380D01*
X89233333Y-91892380D01*
X89138095Y-91844761D01*
X89090476Y-91797142D01*
X76009523Y-91892380D02*
X75438095Y-91892380D01*
X75723809Y-91892380D02*
X75723809Y-90892380D01*
X75628571Y-91035238D01*
X75533333Y-91130476D01*
X75438095Y-91178095D01*
X76628571Y-90892380D02*
X76723809Y-90892380D01*
X76819047Y-90940000D01*
X76866666Y-90987619D01*
X76914285Y-91082857D01*
X76961904Y-91273333D01*
X76961904Y-91511428D01*
X76914285Y-91701904D01*
X76866666Y-91797142D01*
X76819047Y-91844761D01*
X76723809Y-91892380D01*
X76628571Y-91892380D01*
X76533333Y-91844761D01*
X76485714Y-91797142D01*
X76438095Y-91701904D01*
X76390476Y-91511428D01*
X76390476Y-91273333D01*
X76438095Y-91082857D01*
X76485714Y-90987619D01*
X76533333Y-90940000D01*
X76628571Y-90892380D01*
X63738095Y-90892380D02*
X63261904Y-90892380D01*
X63214285Y-91368571D01*
X63261904Y-91320952D01*
X63357142Y-91273333D01*
X63595238Y-91273333D01*
X63690476Y-91320952D01*
X63738095Y-91368571D01*
X63785714Y-91463809D01*
X63785714Y-91701904D01*
X63738095Y-91797142D01*
X63690476Y-91844761D01*
X63595238Y-91892380D01*
X63357142Y-91892380D01*
X63261904Y-91844761D01*
X63214285Y-91797142D01*
X53625714Y-91892380D02*
X53054285Y-91892380D01*
X53340000Y-91892380D02*
X53340000Y-90892380D01*
X53244761Y-91035238D01*
X53149523Y-91130476D01*
X53054285Y-91178095D01*
X50585714Y-104068571D02*
X50919047Y-104068571D01*
X51061904Y-104592380D02*
X50585714Y-104592380D01*
X50585714Y-103592380D01*
X51061904Y-103592380D01*
X50942857Y-121372380D02*
X50942857Y-122086666D01*
X50895238Y-122229523D01*
X50800000Y-122324761D01*
X50657142Y-122372380D01*
X50561904Y-122372380D01*
X51109523Y-99417142D02*
X51061904Y-99464761D01*
X50919047Y-99512380D01*
X50823809Y-99512380D01*
X50680952Y-99464761D01*
X50585714Y-99369523D01*
X50538095Y-99274285D01*
X50490476Y-99083809D01*
X50490476Y-98940952D01*
X50538095Y-98750476D01*
X50585714Y-98655238D01*
X50680952Y-98560000D01*
X50823809Y-98512380D01*
X50919047Y-98512380D01*
X51061904Y-98560000D01*
X51109523Y-98607619D01*
X50538095Y-102052380D02*
X50538095Y-101052380D01*
X50776190Y-101052380D01*
X50919047Y-101100000D01*
X51014285Y-101195238D01*
X51061904Y-101290476D01*
X51109523Y-101480952D01*
X51109523Y-101623809D01*
X51061904Y-101814285D01*
X51014285Y-101909523D01*
X50919047Y-102004761D01*
X50776190Y-102052380D01*
X50538095Y-102052380D01*
X50514285Y-117292380D02*
X50514285Y-116292380D01*
X50514285Y-116768571D02*
X51085714Y-116768571D01*
X51085714Y-117292380D02*
X51085714Y-116292380D01*
X50561904Y-94146666D02*
X51038095Y-94146666D01*
X50466666Y-94432380D02*
X50800000Y-93432380D01*
X51133333Y-94432380D01*
X50942857Y-111688571D02*
X50609523Y-111688571D01*
X50609523Y-112212380D02*
X50609523Y-111212380D01*
X51085714Y-111212380D01*
X50800000Y-119832380D02*
X50800000Y-118832380D01*
X50871428Y-96448571D02*
X51014285Y-96496190D01*
X51061904Y-96543809D01*
X51109523Y-96639047D01*
X51109523Y-96781904D01*
X51061904Y-96877142D01*
X51014285Y-96924761D01*
X50919047Y-96972380D01*
X50538095Y-96972380D01*
X50538095Y-95972380D01*
X50871428Y-95972380D01*
X50966666Y-96020000D01*
X51014285Y-96067619D01*
X51061904Y-96162857D01*
X51061904Y-96258095D01*
X51014285Y-96353333D01*
X50966666Y-96400952D01*
X50871428Y-96448571D01*
X50538095Y-96448571D01*
X51061904Y-113800000D02*
X50966666Y-113752380D01*
X50823809Y-113752380D01*
X50680952Y-113800000D01*
X50585714Y-113895238D01*
X50538095Y-113990476D01*
X50490476Y-114180952D01*
X50490476Y-114323809D01*
X50538095Y-114514285D01*
X50585714Y-114609523D01*
X50680952Y-114704761D01*
X50823809Y-114752380D01*
X50919047Y-114752380D01*
X51061904Y-114704761D01*
X51109523Y-114657142D01*
X51109523Y-114323809D01*
X50919047Y-114323809D01*
X213502857Y-121372380D02*
X213502857Y-122086666D01*
X213455238Y-122229523D01*
X213360000Y-122324761D01*
X213217142Y-122372380D01*
X213121904Y-122372380D01*
X213074285Y-117292380D02*
X213074285Y-116292380D01*
X213074285Y-116768571D02*
X213645714Y-116768571D01*
X213645714Y-117292380D02*
X213645714Y-116292380D01*
X213360000Y-119832380D02*
X213360000Y-118832380D01*
X213502857Y-111688571D02*
X213169523Y-111688571D01*
X213169523Y-112212380D02*
X213169523Y-111212380D01*
X213645714Y-111212380D01*
X213621904Y-113800000D02*
X213526666Y-113752380D01*
X213383809Y-113752380D01*
X213240952Y-113800000D01*
X213145714Y-113895238D01*
X213098095Y-113990476D01*
X213050476Y-114180952D01*
X213050476Y-114323809D01*
X213098095Y-114514285D01*
X213145714Y-114609523D01*
X213240952Y-114704761D01*
X213383809Y-114752380D01*
X213479047Y-114752380D01*
X213621904Y-114704761D01*
X213669523Y-114657142D01*
X213669523Y-114323809D01*
X213479047Y-114323809D01*
X213145714Y-104068571D02*
X213479047Y-104068571D01*
X213621904Y-104592380D02*
X213145714Y-104592380D01*
X213145714Y-103592380D01*
X213621904Y-103592380D01*
X213098095Y-102052380D02*
X213098095Y-101052380D01*
X213336190Y-101052380D01*
X213479047Y-101100000D01*
X213574285Y-101195238D01*
X213621904Y-101290476D01*
X213669523Y-101480952D01*
X213669523Y-101623809D01*
X213621904Y-101814285D01*
X213574285Y-101909523D01*
X213479047Y-102004761D01*
X213336190Y-102052380D01*
X213098095Y-102052380D01*
X213669523Y-99417142D02*
X213621904Y-99464761D01*
X213479047Y-99512380D01*
X213383809Y-99512380D01*
X213240952Y-99464761D01*
X213145714Y-99369523D01*
X213098095Y-99274285D01*
X213050476Y-99083809D01*
X213050476Y-98940952D01*
X213098095Y-98750476D01*
X213145714Y-98655238D01*
X213240952Y-98560000D01*
X213383809Y-98512380D01*
X213479047Y-98512380D01*
X213621904Y-98560000D01*
X213669523Y-98607619D01*
X213431428Y-96448571D02*
X213574285Y-96496190D01*
X213621904Y-96543809D01*
X213669523Y-96639047D01*
X213669523Y-96781904D01*
X213621904Y-96877142D01*
X213574285Y-96924761D01*
X213479047Y-96972380D01*
X213098095Y-96972380D01*
X213098095Y-95972380D01*
X213431428Y-95972380D01*
X213526666Y-96020000D01*
X213574285Y-96067619D01*
X213621904Y-96162857D01*
X213621904Y-96258095D01*
X213574285Y-96353333D01*
X213526666Y-96400952D01*
X213431428Y-96448571D01*
X213098095Y-96448571D01*
X213121904Y-94146666D02*
X213598095Y-94146666D01*
X213026666Y-94432380D02*
X213360000Y-93432380D01*
X213693333Y-94432380D01*
X54229047Y-128331428D02*
X54990952Y-128331428D01*
X54229047Y-133431428D02*
X54990952Y-133431428D01*
X54610000Y-133812380D02*
X54610000Y-133050476D01*
X209169047Y-128331428D02*
X209930952Y-128331428D01*
X209169047Y-133431428D02*
X209930952Y-133431428D01*
X209550000Y-133812380D02*
X209550000Y-133050476D01*
X54229047Y-82611428D02*
X54990952Y-82611428D01*
X54229047Y-87711428D02*
X54990952Y-87711428D01*
X54610000Y-88092380D02*
X54610000Y-87330476D01*
X209169047Y-82611428D02*
X209930952Y-82611428D01*
X209169047Y-87711428D02*
X209930952Y-87711428D01*
X209550000Y-88092380D02*
X209550000Y-87330476D01*
D12*
X207010000Y-128270000D02*
X57150000Y-128270000D01*
X57150000Y-133350000D02*
X207010000Y-133350000D01*
X207010000Y-82550000D02*
X57150000Y-82550000D01*
X57150000Y-87630000D02*
X207010000Y-87630000D01*
D13*
X49600000Y-125450000D02*
X214600000Y-125450000D01*
X49600000Y-90450000D02*
X214600000Y-90450000D01*
X49600000Y-80450000D02*
X49600000Y-135450000D01*
X214600000Y-80460000D02*
X214600000Y-135460000D01*
X49600000Y-135450000D02*
X214600000Y-135450000D01*
X49600000Y-80460000D02*
X214600000Y-80460000D01*
D14*
G36*
X203466957Y-105449700D02*
G01*
X203563232Y-105473938D01*
X203649816Y-105516770D01*
X203724627Y-105576548D01*
X203785582Y-105651623D01*
X203830601Y-105740349D01*
X203856864Y-105836659D01*
X203862714Y-105933924D01*
X203847860Y-106027783D01*
X203814160Y-106115640D01*
X203763472Y-106194899D01*
X203697655Y-106262965D01*
X203618566Y-106317241D01*
X203528066Y-106355131D01*
X203476800Y-106367555D01*
X203432302Y-106375076D01*
X203398001Y-106378048D01*
X203365040Y-106376223D01*
X203324566Y-106369354D01*
X203291469Y-106362379D01*
X203198053Y-106330870D01*
X203114381Y-106279746D01*
X203042335Y-106210558D01*
X202983800Y-106124857D01*
X202969852Y-106097618D01*
X202953414Y-106061251D01*
X202943106Y-106030711D01*
X202937540Y-105998579D01*
X202935331Y-105957436D01*
X202935052Y-105911351D01*
X202939139Y-105826994D01*
X202952554Y-105757715D01*
X202977744Y-105697090D01*
X203017154Y-105638696D01*
X203055702Y-105594431D01*
X203127594Y-105528613D01*
X203202687Y-105483182D01*
X203285438Y-105455979D01*
X203363072Y-105445705D01*
X203466957Y-105449700D01*
X203466957Y-105449700D01*
G37*
X203466957Y-105449700D02*
X203563232Y-105473938D01*
X203649816Y-105516770D01*
X203724627Y-105576548D01*
X203785582Y-105651623D01*
X203830601Y-105740349D01*
X203856864Y-105836659D01*
X203862714Y-105933924D01*
X203847860Y-106027783D01*
X203814160Y-106115640D01*
X203763472Y-106194899D01*
X203697655Y-106262965D01*
X203618566Y-106317241D01*
X203528066Y-106355131D01*
X203476800Y-106367555D01*
X203432302Y-106375076D01*
X203398001Y-106378048D01*
X203365040Y-106376223D01*
X203324566Y-106369354D01*
X203291469Y-106362379D01*
X203198053Y-106330870D01*
X203114381Y-106279746D01*
X203042335Y-106210558D01*
X202983800Y-106124857D01*
X202969852Y-106097618D01*
X202953414Y-106061251D01*
X202943106Y-106030711D01*
X202937540Y-105998579D01*
X202935331Y-105957436D01*
X202935052Y-105911351D01*
X202939139Y-105826994D01*
X202952554Y-105757715D01*
X202977744Y-105697090D01*
X203017154Y-105638696D01*
X203055702Y-105594431D01*
X203127594Y-105528613D01*
X203202687Y-105483182D01*
X203285438Y-105455979D01*
X203363072Y-105445705D01*
X203466957Y-105449700D01*
G36*
X211926507Y-107895374D02*
G01*
X211926526Y-108129791D01*
X211926552Y-108342732D01*
X211926625Y-108535297D01*
X211926782Y-108708588D01*
X211927064Y-108863705D01*
X211927509Y-109001749D01*
X211928156Y-109123821D01*
X211929045Y-109231023D01*
X211930213Y-109324455D01*
X211931701Y-109405219D01*
X211933546Y-109474415D01*
X211935789Y-109533144D01*
X211938469Y-109582508D01*
X211941623Y-109623607D01*
X211945292Y-109657542D01*
X211949513Y-109685415D01*
X211954327Y-109708327D01*
X211959773Y-109727378D01*
X211965888Y-109743669D01*
X211972712Y-109758302D01*
X211980285Y-109772378D01*
X211988645Y-109786997D01*
X211993839Y-109796103D01*
X212028104Y-109856818D01*
X211169955Y-109856818D01*
X211169955Y-109760862D01*
X211169224Y-109717499D01*
X211167272Y-109684334D01*
X211164463Y-109666553D01*
X211163221Y-109664907D01*
X211151799Y-109671791D01*
X211129084Y-109689634D01*
X211106385Y-109709008D01*
X211051800Y-109749743D01*
X210982321Y-109790746D01*
X210905270Y-109828252D01*
X210827965Y-109858493D01*
X210797113Y-109868141D01*
X210728616Y-109882707D01*
X210645764Y-109892668D01*
X210556371Y-109897712D01*
X210468248Y-109897525D01*
X210389207Y-109891795D01*
X210351511Y-109885987D01*
X210213414Y-109847926D01*
X210086113Y-109790202D01*
X209970292Y-109713340D01*
X209866637Y-109617868D01*
X209775833Y-109504308D01*
X209709031Y-109393510D01*
X209654164Y-109276754D01*
X209612163Y-109157405D01*
X209582167Y-109031412D01*
X209563311Y-108894723D01*
X209554732Y-108743287D01*
X209554006Y-108665840D01*
X209556100Y-108609063D01*
X210385217Y-108609063D01*
X210385424Y-108702131D01*
X210388337Y-108789821D01*
X210394000Y-108866901D01*
X210402455Y-108928138D01*
X210405038Y-108940479D01*
X210436840Y-109047762D01*
X210478498Y-109134787D01*
X210530363Y-109201771D01*
X210592781Y-109248934D01*
X210666100Y-109276494D01*
X210750669Y-109284670D01*
X210846835Y-109273680D01*
X210910311Y-109257958D01*
X210959454Y-109239768D01*
X211013583Y-109213920D01*
X211054244Y-109190218D01*
X211124800Y-109143850D01*
X211124800Y-107993659D01*
X211057392Y-107950091D01*
X210978867Y-107909169D01*
X210894681Y-107882518D01*
X210809557Y-107870594D01*
X210728216Y-107873851D01*
X210655380Y-107892744D01*
X210623426Y-107908313D01*
X210565501Y-107951310D01*
X210516544Y-108008082D01*
X210475390Y-108080704D01*
X210440874Y-108171250D01*
X210411833Y-108281795D01*
X210410552Y-108287662D01*
X210400381Y-108349917D01*
X210392739Y-108427723D01*
X210387670Y-108515849D01*
X210385217Y-108609063D01*
X209556100Y-108609063D01*
X209561857Y-108453024D01*
X209583802Y-108257188D01*
X209619786Y-108078461D01*
X209669759Y-107916974D01*
X209733668Y-107772855D01*
X209811462Y-107646235D01*
X209903089Y-107537244D01*
X210008497Y-107446012D01*
X210053662Y-107415061D01*
X210154611Y-107358914D01*
X210257901Y-107319303D01*
X210367989Y-107295143D01*
X210489330Y-107285348D01*
X210581836Y-107286394D01*
X210711490Y-107297360D01*
X210824084Y-107319175D01*
X210922875Y-107352843D01*
X211011121Y-107399365D01*
X211059986Y-107433577D01*
X211089353Y-107455491D01*
X211111043Y-107470462D01*
X211119253Y-107474862D01*
X211120868Y-107464033D01*
X211122159Y-107433380D01*
X211123138Y-107385655D01*
X211123817Y-107323608D01*
X211124210Y-107249991D01*
X211124330Y-107167556D01*
X211124188Y-107079054D01*
X211123797Y-106987236D01*
X211123171Y-106894853D01*
X211122320Y-106804657D01*
X211121260Y-106719400D01*
X211120001Y-106641832D01*
X211118556Y-106574705D01*
X211116938Y-106520770D01*
X211115161Y-106482779D01*
X211114669Y-106475796D01*
X211107092Y-106405380D01*
X211095531Y-106350231D01*
X211077792Y-106303110D01*
X211051682Y-106256776D01*
X211045415Y-106247196D01*
X211020983Y-106210507D01*
X211926311Y-106210507D01*
X211926507Y-107895374D01*
X211926507Y-107895374D01*
G37*
X211926507Y-107895374D02*
X211926526Y-108129791D01*
X211926552Y-108342732D01*
X211926625Y-108535297D01*
X211926782Y-108708588D01*
X211927064Y-108863705D01*
X211927509Y-109001749D01*
X211928156Y-109123821D01*
X211929045Y-109231023D01*
X211930213Y-109324455D01*
X211931701Y-109405219D01*
X211933546Y-109474415D01*
X211935789Y-109533144D01*
X211938469Y-109582508D01*
X211941623Y-109623607D01*
X211945292Y-109657542D01*
X211949513Y-109685415D01*
X211954327Y-109708327D01*
X211959773Y-109727378D01*
X211965888Y-109743669D01*
X211972712Y-109758302D01*
X211980285Y-109772378D01*
X211988645Y-109786997D01*
X211993839Y-109796103D01*
X212028104Y-109856818D01*
X211169955Y-109856818D01*
X211169955Y-109760862D01*
X211169224Y-109717499D01*
X211167272Y-109684334D01*
X211164463Y-109666553D01*
X211163221Y-109664907D01*
X211151799Y-109671791D01*
X211129084Y-109689634D01*
X211106385Y-109709008D01*
X211051800Y-109749743D01*
X210982321Y-109790746D01*
X210905270Y-109828252D01*
X210827965Y-109858493D01*
X210797113Y-109868141D01*
X210728616Y-109882707D01*
X210645764Y-109892668D01*
X210556371Y-109897712D01*
X210468248Y-109897525D01*
X210389207Y-109891795D01*
X210351511Y-109885987D01*
X210213414Y-109847926D01*
X210086113Y-109790202D01*
X209970292Y-109713340D01*
X209866637Y-109617868D01*
X209775833Y-109504308D01*
X209709031Y-109393510D01*
X209654164Y-109276754D01*
X209612163Y-109157405D01*
X209582167Y-109031412D01*
X209563311Y-108894723D01*
X209554732Y-108743287D01*
X209554006Y-108665840D01*
X209556100Y-108609063D01*
X210385217Y-108609063D01*
X210385424Y-108702131D01*
X210388337Y-108789821D01*
X210394000Y-108866901D01*
X210402455Y-108928138D01*
X210405038Y-108940479D01*
X210436840Y-109047762D01*
X210478498Y-109134787D01*
X210530363Y-109201771D01*
X210592781Y-109248934D01*
X210666100Y-109276494D01*
X210750669Y-109284670D01*
X210846835Y-109273680D01*
X210910311Y-109257958D01*
X210959454Y-109239768D01*
X211013583Y-109213920D01*
X211054244Y-109190218D01*
X211124800Y-109143850D01*
X211124800Y-107993659D01*
X211057392Y-107950091D01*
X210978867Y-107909169D01*
X210894681Y-107882518D01*
X210809557Y-107870594D01*
X210728216Y-107873851D01*
X210655380Y-107892744D01*
X210623426Y-107908313D01*
X210565501Y-107951310D01*
X210516544Y-108008082D01*
X210475390Y-108080704D01*
X210440874Y-108171250D01*
X210411833Y-108281795D01*
X210410552Y-108287662D01*
X210400381Y-108349917D01*
X210392739Y-108427723D01*
X210387670Y-108515849D01*
X210385217Y-108609063D01*
X209556100Y-108609063D01*
X209561857Y-108453024D01*
X209583802Y-108257188D01*
X209619786Y-108078461D01*
X209669759Y-107916974D01*
X209733668Y-107772855D01*
X209811462Y-107646235D01*
X209903089Y-107537244D01*
X210008497Y-107446012D01*
X210053662Y-107415061D01*
X210154611Y-107358914D01*
X210257901Y-107319303D01*
X210367989Y-107295143D01*
X210489330Y-107285348D01*
X210581836Y-107286394D01*
X210711490Y-107297360D01*
X210824084Y-107319175D01*
X210922875Y-107352843D01*
X211011121Y-107399365D01*
X211059986Y-107433577D01*
X211089353Y-107455491D01*
X211111043Y-107470462D01*
X211119253Y-107474862D01*
X211120868Y-107464033D01*
X211122159Y-107433380D01*
X211123138Y-107385655D01*
X211123817Y-107323608D01*
X211124210Y-107249991D01*
X211124330Y-107167556D01*
X211124188Y-107079054D01*
X211123797Y-106987236D01*
X211123171Y-106894853D01*
X211122320Y-106804657D01*
X211121260Y-106719400D01*
X211120001Y-106641832D01*
X211118556Y-106574705D01*
X211116938Y-106520770D01*
X211115161Y-106482779D01*
X211114669Y-106475796D01*
X211107092Y-106405380D01*
X211095531Y-106350231D01*
X211077792Y-106303110D01*
X211051682Y-106256776D01*
X211045415Y-106247196D01*
X211020983Y-106210507D01*
X211926311Y-106210507D01*
X211926507Y-107895374D01*
G36*
X208413574Y-107289681D02*
G01*
X208565492Y-107309696D01*
X208700756Y-107343331D01*
X208820239Y-107390854D01*
X208924815Y-107452534D01*
X209002424Y-107516094D01*
X209071265Y-107590228D01*
X209125006Y-107670000D01*
X209167910Y-107762220D01*
X209183384Y-107805290D01*
X209196244Y-107844271D01*
X209207446Y-107880418D01*
X209217120Y-107915563D01*
X209225396Y-107951539D01*
X209232403Y-107990179D01*
X209238272Y-108033314D01*
X209243131Y-108082778D01*
X209247110Y-108140402D01*
X209250340Y-108208020D01*
X209252949Y-108287463D01*
X209255067Y-108380565D01*
X209256824Y-108489156D01*
X209258349Y-108615071D01*
X209259772Y-108760141D01*
X209261025Y-108902907D01*
X209262351Y-109059097D01*
X209263556Y-109194368D01*
X209264766Y-109310375D01*
X209266106Y-109408774D01*
X209267700Y-109491222D01*
X209269675Y-109559375D01*
X209272156Y-109614889D01*
X209275269Y-109659421D01*
X209279138Y-109694627D01*
X209283889Y-109722163D01*
X209289648Y-109743685D01*
X209296539Y-109760851D01*
X209304689Y-109775315D01*
X209314223Y-109788735D01*
X209325266Y-109802767D01*
X209329566Y-109808200D01*
X209345386Y-109831039D01*
X209352422Y-109846592D01*
X209352444Y-109847051D01*
X209341567Y-109849250D01*
X209310582Y-109851276D01*
X209261957Y-109853071D01*
X209198163Y-109854580D01*
X209121669Y-109855745D01*
X209034944Y-109856509D01*
X208940457Y-109856815D01*
X208929550Y-109856818D01*
X208506657Y-109856818D01*
X208503395Y-109760751D01*
X208500133Y-109664685D01*
X208438044Y-109715672D01*
X208340714Y-109783186D01*
X208230813Y-109837878D01*
X208144349Y-109868107D01*
X208075278Y-109882795D01*
X207991925Y-109892788D01*
X207902159Y-109897775D01*
X207813845Y-109897442D01*
X207734851Y-109891480D01*
X207698622Y-109885767D01*
X207558603Y-109847905D01*
X207432178Y-109793061D01*
X207320260Y-109722053D01*
X207223762Y-109635697D01*
X207143600Y-109534808D01*
X207080687Y-109420205D01*
X207036312Y-109294113D01*
X207023978Y-109237530D01*
X207016368Y-109175331D01*
X207012739Y-109100492D01*
X207012245Y-109066596D01*
X207012310Y-109063411D01*
X207772248Y-109063411D01*
X207781541Y-109138462D01*
X207809728Y-109202289D01*
X207858197Y-109257927D01*
X207863254Y-109262340D01*
X207911548Y-109297166D01*
X207963257Y-109319749D01*
X208023989Y-109331669D01*
X208099352Y-109334512D01*
X208117459Y-109334107D01*
X208171278Y-109331454D01*
X208211308Y-109326038D01*
X208246324Y-109315874D01*
X208285103Y-109298979D01*
X208295745Y-109293801D01*
X208356396Y-109257973D01*
X208403215Y-109215341D01*
X208415952Y-109200102D01*
X208460622Y-109143591D01*
X208460622Y-108947715D01*
X208460086Y-108869068D01*
X208458396Y-108811117D01*
X208455428Y-108772004D01*
X208451057Y-108749870D01*
X208446972Y-108743403D01*
X208431047Y-108740240D01*
X208397264Y-108737617D01*
X208350340Y-108735784D01*
X208294993Y-108734986D01*
X208286106Y-108734971D01*
X208165330Y-108740225D01*
X208062660Y-108756392D01*
X207976106Y-108784090D01*
X207903681Y-108823937D01*
X207848751Y-108870887D01*
X207804204Y-108928774D01*
X207779480Y-108991822D01*
X207772248Y-109063411D01*
X207012310Y-109063411D01*
X207014178Y-108972841D01*
X207022522Y-108893941D01*
X207038768Y-108822719D01*
X207064405Y-108751993D01*
X207088401Y-108699622D01*
X207147020Y-108604325D01*
X207225117Y-108516299D01*
X207320315Y-108437146D01*
X207430238Y-108368469D01*
X207552510Y-108311870D01*
X207684755Y-108268950D01*
X207749422Y-108254011D01*
X207885604Y-108231906D01*
X208034049Y-108217323D01*
X208185505Y-108210942D01*
X208312064Y-108212574D01*
X208473950Y-108219353D01*
X208466530Y-108160374D01*
X208447238Y-108061221D01*
X208416104Y-107980501D01*
X208372269Y-107917595D01*
X208314871Y-107871885D01*
X208243048Y-107842751D01*
X208155941Y-107829576D01*
X208052686Y-107831740D01*
X208014711Y-107835741D01*
X207873520Y-107860909D01*
X207736707Y-107901943D01*
X207642178Y-107939944D01*
X207597018Y-107959319D01*
X207558585Y-107974889D01*
X207532234Y-107984534D01*
X207524546Y-107986581D01*
X207514802Y-107977503D01*
X207498083Y-107948534D01*
X207474232Y-107899346D01*
X207443093Y-107829613D01*
X207404507Y-107739008D01*
X207397910Y-107723218D01*
X207367853Y-107650901D01*
X207340874Y-107585554D01*
X207318136Y-107530035D01*
X207300806Y-107487201D01*
X207290048Y-107459910D01*
X207286941Y-107451071D01*
X207296940Y-107446316D01*
X207323217Y-107441039D01*
X207351489Y-107437360D01*
X207381646Y-107432603D01*
X207429433Y-107423157D01*
X207490612Y-107409949D01*
X207560946Y-107393905D01*
X207636194Y-107375949D01*
X207664755Y-107368926D01*
X207769816Y-107343338D01*
X207857480Y-107323276D01*
X207932068Y-107308098D01*
X207997903Y-107297164D01*
X208059307Y-107289833D01*
X208120602Y-107285464D01*
X208186110Y-107283416D01*
X208244128Y-107283018D01*
X208413574Y-107289681D01*
X208413574Y-107289681D01*
G37*
X208413574Y-107289681D02*
X208565492Y-107309696D01*
X208700756Y-107343331D01*
X208820239Y-107390854D01*
X208924815Y-107452534D01*
X209002424Y-107516094D01*
X209071265Y-107590228D01*
X209125006Y-107670000D01*
X209167910Y-107762220D01*
X209183384Y-107805290D01*
X209196244Y-107844271D01*
X209207446Y-107880418D01*
X209217120Y-107915563D01*
X209225396Y-107951539D01*
X209232403Y-107990179D01*
X209238272Y-108033314D01*
X209243131Y-108082778D01*
X209247110Y-108140402D01*
X209250340Y-108208020D01*
X209252949Y-108287463D01*
X209255067Y-108380565D01*
X209256824Y-108489156D01*
X209258349Y-108615071D01*
X209259772Y-108760141D01*
X209261025Y-108902907D01*
X209262351Y-109059097D01*
X209263556Y-109194368D01*
X209264766Y-109310375D01*
X209266106Y-109408774D01*
X209267700Y-109491222D01*
X209269675Y-109559375D01*
X209272156Y-109614889D01*
X209275269Y-109659421D01*
X209279138Y-109694627D01*
X209283889Y-109722163D01*
X209289648Y-109743685D01*
X209296539Y-109760851D01*
X209304689Y-109775315D01*
X209314223Y-109788735D01*
X209325266Y-109802767D01*
X209329566Y-109808200D01*
X209345386Y-109831039D01*
X209352422Y-109846592D01*
X209352444Y-109847051D01*
X209341567Y-109849250D01*
X209310582Y-109851276D01*
X209261957Y-109853071D01*
X209198163Y-109854580D01*
X209121669Y-109855745D01*
X209034944Y-109856509D01*
X208940457Y-109856815D01*
X208929550Y-109856818D01*
X208506657Y-109856818D01*
X208503395Y-109760751D01*
X208500133Y-109664685D01*
X208438044Y-109715672D01*
X208340714Y-109783186D01*
X208230813Y-109837878D01*
X208144349Y-109868107D01*
X208075278Y-109882795D01*
X207991925Y-109892788D01*
X207902159Y-109897775D01*
X207813845Y-109897442D01*
X207734851Y-109891480D01*
X207698622Y-109885767D01*
X207558603Y-109847905D01*
X207432178Y-109793061D01*
X207320260Y-109722053D01*
X207223762Y-109635697D01*
X207143600Y-109534808D01*
X207080687Y-109420205D01*
X207036312Y-109294113D01*
X207023978Y-109237530D01*
X207016368Y-109175331D01*
X207012739Y-109100492D01*
X207012245Y-109066596D01*
X207012310Y-109063411D01*
X207772248Y-109063411D01*
X207781541Y-109138462D01*
X207809728Y-109202289D01*
X207858197Y-109257927D01*
X207863254Y-109262340D01*
X207911548Y-109297166D01*
X207963257Y-109319749D01*
X208023989Y-109331669D01*
X208099352Y-109334512D01*
X208117459Y-109334107D01*
X208171278Y-109331454D01*
X208211308Y-109326038D01*
X208246324Y-109315874D01*
X208285103Y-109298979D01*
X208295745Y-109293801D01*
X208356396Y-109257973D01*
X208403215Y-109215341D01*
X208415952Y-109200102D01*
X208460622Y-109143591D01*
X208460622Y-108947715D01*
X208460086Y-108869068D01*
X208458396Y-108811117D01*
X208455428Y-108772004D01*
X208451057Y-108749870D01*
X208446972Y-108743403D01*
X208431047Y-108740240D01*
X208397264Y-108737617D01*
X208350340Y-108735784D01*
X208294993Y-108734986D01*
X208286106Y-108734971D01*
X208165330Y-108740225D01*
X208062660Y-108756392D01*
X207976106Y-108784090D01*
X207903681Y-108823937D01*
X207848751Y-108870887D01*
X207804204Y-108928774D01*
X207779480Y-108991822D01*
X207772248Y-109063411D01*
X207012310Y-109063411D01*
X207014178Y-108972841D01*
X207022522Y-108893941D01*
X207038768Y-108822719D01*
X207064405Y-108751993D01*
X207088401Y-108699622D01*
X207147020Y-108604325D01*
X207225117Y-108516299D01*
X207320315Y-108437146D01*
X207430238Y-108368469D01*
X207552510Y-108311870D01*
X207684755Y-108268950D01*
X207749422Y-108254011D01*
X207885604Y-108231906D01*
X208034049Y-108217323D01*
X208185505Y-108210942D01*
X208312064Y-108212574D01*
X208473950Y-108219353D01*
X208466530Y-108160374D01*
X208447238Y-108061221D01*
X208416104Y-107980501D01*
X208372269Y-107917595D01*
X208314871Y-107871885D01*
X208243048Y-107842751D01*
X208155941Y-107829576D01*
X208052686Y-107831740D01*
X208014711Y-107835741D01*
X207873520Y-107860909D01*
X207736707Y-107901943D01*
X207642178Y-107939944D01*
X207597018Y-107959319D01*
X207558585Y-107974889D01*
X207532234Y-107984534D01*
X207524546Y-107986581D01*
X207514802Y-107977503D01*
X207498083Y-107948534D01*
X207474232Y-107899346D01*
X207443093Y-107829613D01*
X207404507Y-107739008D01*
X207397910Y-107723218D01*
X207367853Y-107650901D01*
X207340874Y-107585554D01*
X207318136Y-107530035D01*
X207300806Y-107487201D01*
X207290048Y-107459910D01*
X207286941Y-107451071D01*
X207296940Y-107446316D01*
X207323217Y-107441039D01*
X207351489Y-107437360D01*
X207381646Y-107432603D01*
X207429433Y-107423157D01*
X207490612Y-107409949D01*
X207560946Y-107393905D01*
X207636194Y-107375949D01*
X207664755Y-107368926D01*
X207769816Y-107343338D01*
X207857480Y-107323276D01*
X207932068Y-107308098D01*
X207997903Y-107297164D01*
X208059307Y-107289833D01*
X208120602Y-107285464D01*
X208186110Y-107283416D01*
X208244128Y-107283018D01*
X208413574Y-107289681D01*
G36*
X206068429Y-106372200D02*
G01*
X206228570Y-106393374D01*
X206392510Y-106433514D01*
X206562313Y-106493018D01*
X206740043Y-106572283D01*
X206751310Y-106577828D01*
X206809005Y-106605854D01*
X206860552Y-106629931D01*
X206902191Y-106648378D01*
X206930162Y-106659515D01*
X206939733Y-106662062D01*
X206958950Y-106667070D01*
X206963561Y-106671276D01*
X206958458Y-106681709D01*
X206942418Y-106707997D01*
X206917288Y-106747386D01*
X206884914Y-106797120D01*
X206847143Y-106854444D01*
X206805822Y-106916605D01*
X206762798Y-106980847D01*
X206719917Y-107044414D01*
X206679026Y-107104554D01*
X206641971Y-107158509D01*
X206610600Y-107203526D01*
X206586759Y-107236850D01*
X206572294Y-107255726D01*
X206570309Y-107257916D01*
X206560191Y-107253267D01*
X206537850Y-107236091D01*
X206507280Y-107209569D01*
X206491536Y-107195093D01*
X206395047Y-107119811D01*
X206288336Y-107064370D01*
X206172832Y-107029270D01*
X206049962Y-107015009D01*
X205980561Y-107016180D01*
X205859423Y-107033341D01*
X205750205Y-107069223D01*
X205652582Y-107124088D01*
X205566228Y-107198199D01*
X205490815Y-107291817D01*
X205426018Y-107405205D01*
X205388601Y-107491796D01*
X205344748Y-107627495D01*
X205312428Y-107774979D01*
X205291557Y-107930443D01*
X205282051Y-108090085D01*
X205283827Y-108250102D01*
X205296803Y-108406690D01*
X205320894Y-108556047D01*
X205356018Y-108694369D01*
X205402092Y-108817853D01*
X205418373Y-108852107D01*
X205486620Y-108966193D01*
X205567079Y-109062686D01*
X205658570Y-109140799D01*
X205759911Y-109199746D01*
X205869920Y-109238741D01*
X205987415Y-109256997D01*
X206028883Y-109258340D01*
X206150441Y-109247419D01*
X206270878Y-109214603D01*
X206388666Y-109160568D01*
X206502277Y-109085994D01*
X206593685Y-109007668D01*
X206640215Y-108963137D01*
X206821483Y-109260400D01*
X206866580Y-109334562D01*
X206907819Y-109402775D01*
X206943735Y-109462588D01*
X206972866Y-109511549D01*
X206993750Y-109547208D01*
X207004924Y-109567113D01*
X207006375Y-109570208D01*
X206998146Y-109579847D01*
X206972567Y-109597128D01*
X206932873Y-109620412D01*
X206882297Y-109648063D01*
X206824074Y-109678444D01*
X206761437Y-109709919D01*
X206697621Y-109740851D01*
X206635860Y-109769602D01*
X206579388Y-109794537D01*
X206531438Y-109814018D01*
X206507986Y-109822447D01*
X206374221Y-109860262D01*
X206236327Y-109885265D01*
X206088622Y-109898269D01*
X205961833Y-109900597D01*
X205893878Y-109899502D01*
X205828277Y-109897404D01*
X205770847Y-109894563D01*
X205727403Y-109891235D01*
X205713298Y-109889551D01*
X205574284Y-109860716D01*
X205432757Y-109815597D01*
X205295275Y-109756879D01*
X205168394Y-109687249D01*
X205090889Y-109634570D01*
X204963481Y-109526368D01*
X204845178Y-109399800D01*
X204738172Y-109257995D01*
X204644652Y-109104080D01*
X204566810Y-108941182D01*
X204522956Y-108823885D01*
X204472708Y-108640257D01*
X204439209Y-108445710D01*
X204422449Y-108244454D01*
X204422416Y-108040697D01*
X204439101Y-107838650D01*
X204472493Y-107642521D01*
X204522580Y-107456520D01*
X204526397Y-107444932D01*
X204589281Y-107282879D01*
X204666028Y-107134961D01*
X204759242Y-106996994D01*
X204871527Y-106864790D01*
X204915392Y-106819528D01*
X205051534Y-106695586D01*
X205191491Y-106593044D01*
X205337411Y-106510785D01*
X205491442Y-106447693D01*
X205655732Y-106402652D01*
X205751289Y-106385162D01*
X205910023Y-106369595D01*
X206068429Y-106372200D01*
X206068429Y-106372200D01*
G37*
X206068429Y-106372200D02*
X206228570Y-106393374D01*
X206392510Y-106433514D01*
X206562313Y-106493018D01*
X206740043Y-106572283D01*
X206751310Y-106577828D01*
X206809005Y-106605854D01*
X206860552Y-106629931D01*
X206902191Y-106648378D01*
X206930162Y-106659515D01*
X206939733Y-106662062D01*
X206958950Y-106667070D01*
X206963561Y-106671276D01*
X206958458Y-106681709D01*
X206942418Y-106707997D01*
X206917288Y-106747386D01*
X206884914Y-106797120D01*
X206847143Y-106854444D01*
X206805822Y-106916605D01*
X206762798Y-106980847D01*
X206719917Y-107044414D01*
X206679026Y-107104554D01*
X206641971Y-107158509D01*
X206610600Y-107203526D01*
X206586759Y-107236850D01*
X206572294Y-107255726D01*
X206570309Y-107257916D01*
X206560191Y-107253267D01*
X206537850Y-107236091D01*
X206507280Y-107209569D01*
X206491536Y-107195093D01*
X206395047Y-107119811D01*
X206288336Y-107064370D01*
X206172832Y-107029270D01*
X206049962Y-107015009D01*
X205980561Y-107016180D01*
X205859423Y-107033341D01*
X205750205Y-107069223D01*
X205652582Y-107124088D01*
X205566228Y-107198199D01*
X205490815Y-107291817D01*
X205426018Y-107405205D01*
X205388601Y-107491796D01*
X205344748Y-107627495D01*
X205312428Y-107774979D01*
X205291557Y-107930443D01*
X205282051Y-108090085D01*
X205283827Y-108250102D01*
X205296803Y-108406690D01*
X205320894Y-108556047D01*
X205356018Y-108694369D01*
X205402092Y-108817853D01*
X205418373Y-108852107D01*
X205486620Y-108966193D01*
X205567079Y-109062686D01*
X205658570Y-109140799D01*
X205759911Y-109199746D01*
X205869920Y-109238741D01*
X205987415Y-109256997D01*
X206028883Y-109258340D01*
X206150441Y-109247419D01*
X206270878Y-109214603D01*
X206388666Y-109160568D01*
X206502277Y-109085994D01*
X206593685Y-109007668D01*
X206640215Y-108963137D01*
X206821483Y-109260400D01*
X206866580Y-109334562D01*
X206907819Y-109402775D01*
X206943735Y-109462588D01*
X206972866Y-109511549D01*
X206993750Y-109547208D01*
X207004924Y-109567113D01*
X207006375Y-109570208D01*
X206998146Y-109579847D01*
X206972567Y-109597128D01*
X206932873Y-109620412D01*
X206882297Y-109648063D01*
X206824074Y-109678444D01*
X206761437Y-109709919D01*
X206697621Y-109740851D01*
X206635860Y-109769602D01*
X206579388Y-109794537D01*
X206531438Y-109814018D01*
X206507986Y-109822447D01*
X206374221Y-109860262D01*
X206236327Y-109885265D01*
X206088622Y-109898269D01*
X205961833Y-109900597D01*
X205893878Y-109899502D01*
X205828277Y-109897404D01*
X205770847Y-109894563D01*
X205727403Y-109891235D01*
X205713298Y-109889551D01*
X205574284Y-109860716D01*
X205432757Y-109815597D01*
X205295275Y-109756879D01*
X205168394Y-109687249D01*
X205090889Y-109634570D01*
X204963481Y-109526368D01*
X204845178Y-109399800D01*
X204738172Y-109257995D01*
X204644652Y-109104080D01*
X204566810Y-108941182D01*
X204522956Y-108823885D01*
X204472708Y-108640257D01*
X204439209Y-108445710D01*
X204422449Y-108244454D01*
X204422416Y-108040697D01*
X204439101Y-107838650D01*
X204472493Y-107642521D01*
X204522580Y-107456520D01*
X204526397Y-107444932D01*
X204589281Y-107282879D01*
X204666028Y-107134961D01*
X204759242Y-106996994D01*
X204871527Y-106864790D01*
X204915392Y-106819528D01*
X205051534Y-106695586D01*
X205191491Y-106593044D01*
X205337411Y-106510785D01*
X205491442Y-106447693D01*
X205655732Y-106402652D01*
X205751289Y-106385162D01*
X205910023Y-106369595D01*
X206068429Y-106372200D01*
G36*
X202793600Y-105912183D02*
G01*
X202804465Y-106026122D01*
X202836082Y-106133745D01*
X202886985Y-106232744D01*
X202955707Y-106320813D01*
X203040781Y-106395645D01*
X203137768Y-106453513D01*
X203244036Y-106493134D01*
X203351050Y-106511702D01*
X203456700Y-106510563D01*
X203558875Y-106491059D01*
X203655466Y-106454535D01*
X203744362Y-106402334D01*
X203823454Y-106335802D01*
X203890631Y-106256281D01*
X203943783Y-106165116D01*
X203980801Y-106063652D01*
X203999573Y-105953231D01*
X204001511Y-105903335D01*
X204001511Y-105815396D01*
X204053440Y-105815396D01*
X204089747Y-105818240D01*
X204116645Y-105830040D01*
X204143751Y-105853778D01*
X204182133Y-105892160D01*
X204182133Y-108083731D01*
X204182124Y-108345868D01*
X204182092Y-108586370D01*
X204182028Y-108806177D01*
X204181924Y-109006230D01*
X204181773Y-109187473D01*
X204181566Y-109350845D01*
X204181294Y-109497289D01*
X204180950Y-109627746D01*
X204180526Y-109743158D01*
X204180013Y-109844467D01*
X204179403Y-109932613D01*
X204178688Y-110008539D01*
X204177860Y-110073186D01*
X204176911Y-110127496D01*
X204175833Y-110172409D01*
X204174617Y-110208869D01*
X204173255Y-110237816D01*
X204171739Y-110260192D01*
X204170062Y-110276938D01*
X204168214Y-110288997D01*
X204166187Y-110297309D01*
X204163975Y-110302816D01*
X204162892Y-110304666D01*
X204158729Y-110311678D01*
X204155195Y-110318125D01*
X204151365Y-110324029D01*
X204146318Y-110329415D01*
X204139129Y-110334307D01*
X204128877Y-110338727D01*
X204114636Y-110342701D01*
X204095486Y-110346250D01*
X204070501Y-110349399D01*
X204038760Y-110352171D01*
X203999338Y-110354590D01*
X203951314Y-110356680D01*
X203893763Y-110358464D01*
X203825763Y-110359966D01*
X203746390Y-110361209D01*
X203654721Y-110362218D01*
X203549834Y-110363014D01*
X203430804Y-110363623D01*
X203296710Y-110364068D01*
X203146627Y-110364372D01*
X202979633Y-110364559D01*
X202794804Y-110364653D01*
X202591217Y-110364677D01*
X202367950Y-110364654D01*
X202124078Y-110364609D01*
X201858679Y-110364566D01*
X201820296Y-110364561D01*
X201553318Y-110364518D01*
X201307998Y-110364447D01*
X201083417Y-110364342D01*
X200878655Y-110364195D01*
X200692794Y-110363998D01*
X200524912Y-110363745D01*
X200374092Y-110363429D01*
X200239413Y-110363042D01*
X200119956Y-110362576D01*
X200014801Y-110362026D01*
X199923029Y-110361382D01*
X199843721Y-110360640D01*
X199775957Y-110359790D01*
X199718818Y-110358826D01*
X199671383Y-110357740D01*
X199632734Y-110356526D01*
X199601951Y-110355176D01*
X199578115Y-110353684D01*
X199560306Y-110352040D01*
X199547605Y-110350240D01*
X199539092Y-110348274D01*
X199534734Y-110346606D01*
X199526272Y-110343035D01*
X199518503Y-110340399D01*
X199511398Y-110337763D01*
X199504927Y-110334191D01*
X199499061Y-110328750D01*
X199493771Y-110320504D01*
X199489026Y-110308519D01*
X199484798Y-110291860D01*
X199481057Y-110269592D01*
X199477773Y-110240781D01*
X199474917Y-110204492D01*
X199472460Y-110159790D01*
X199470371Y-110105740D01*
X199468622Y-110041408D01*
X199467183Y-109965859D01*
X199466024Y-109878159D01*
X199465117Y-109777372D01*
X199464431Y-109662563D01*
X199463937Y-109532799D01*
X199463605Y-109387144D01*
X199463407Y-109224664D01*
X199463313Y-109044424D01*
X199463292Y-108845489D01*
X199463315Y-108626925D01*
X199463354Y-108387797D01*
X199463378Y-108127169D01*
X199463378Y-108085018D01*
X199463364Y-107822121D01*
X199463339Y-107580861D01*
X199463329Y-107360294D01*
X199463358Y-107159481D01*
X199463452Y-106977478D01*
X199463638Y-106813345D01*
X199463941Y-106666140D01*
X199464386Y-106534921D01*
X199464966Y-106424996D01*
X199767803Y-106424996D01*
X199807593Y-106482840D01*
X199818764Y-106498608D01*
X199828834Y-106512570D01*
X199837862Y-106525913D01*
X199845903Y-106539822D01*
X199853014Y-106555485D01*
X199859253Y-106574087D01*
X199864675Y-106596815D01*
X199869338Y-106624856D01*
X199873299Y-106659396D01*
X199876615Y-106701621D01*
X199879341Y-106752718D01*
X199881536Y-106813873D01*
X199883255Y-106886273D01*
X199884556Y-106971104D01*
X199885495Y-107069551D01*
X199886130Y-107182803D01*
X199886516Y-107312045D01*
X199886712Y-107458463D01*
X199886773Y-107623245D01*
X199886757Y-107807576D01*
X199886720Y-108012642D01*
X199886711Y-108135262D01*
X199886735Y-108352211D01*
X199886769Y-108547771D01*
X199886757Y-108723128D01*
X199886642Y-108879470D01*
X199886370Y-109017986D01*
X199885882Y-109139863D01*
X199885124Y-109246289D01*
X199884038Y-109338451D01*
X199882569Y-109417538D01*
X199880660Y-109484737D01*
X199878256Y-109541236D01*
X199875299Y-109588222D01*
X199871734Y-109626884D01*
X199867505Y-109658409D01*
X199862554Y-109683984D01*
X199856827Y-109704799D01*
X199850267Y-109722040D01*
X199842817Y-109736894D01*
X199834421Y-109750551D01*
X199825024Y-109764198D01*
X199814568Y-109779022D01*
X199808477Y-109787912D01*
X199769704Y-109845529D01*
X200301268Y-109845529D01*
X200424517Y-109845494D01*
X200527013Y-109845344D01*
X200610580Y-109845007D01*
X200677044Y-109844415D01*
X200728229Y-109843496D01*
X200765959Y-109842180D01*
X200792060Y-109840398D01*
X200808356Y-109838080D01*
X200816672Y-109835155D01*
X200818832Y-109831553D01*
X200816661Y-109827204D01*
X200815465Y-109825774D01*
X200790315Y-109788702D01*
X200764417Y-109735901D01*
X200740808Y-109673899D01*
X200732539Y-109647486D01*
X200727922Y-109629545D01*
X200724021Y-109608484D01*
X200720752Y-109582218D01*
X200718034Y-109548661D01*
X200715785Y-109505728D01*
X200713923Y-109451333D01*
X200712364Y-109383391D01*
X200711028Y-109299817D01*
X200709831Y-109198524D01*
X200708692Y-109077429D01*
X200708315Y-109032729D01*
X200707298Y-108907578D01*
X200706540Y-108803211D01*
X200706097Y-108717836D01*
X200706030Y-108649662D01*
X200706395Y-108596894D01*
X200707252Y-108557743D01*
X200708659Y-108530414D01*
X200710675Y-108513115D01*
X200713357Y-108504055D01*
X200716764Y-108501441D01*
X200720956Y-108503480D01*
X200725429Y-108507796D01*
X200735784Y-108520731D01*
X200757842Y-108549805D01*
X200790043Y-108592888D01*
X200830826Y-108647847D01*
X200878630Y-108712552D01*
X200931895Y-108784871D01*
X200989060Y-108862673D01*
X201048563Y-108943827D01*
X201108845Y-109026201D01*
X201168345Y-109107665D01*
X201225502Y-109186086D01*
X201278755Y-109259333D01*
X201326543Y-109325276D01*
X201367307Y-109381783D01*
X201399484Y-109426722D01*
X201421515Y-109457963D01*
X201426083Y-109464595D01*
X201449004Y-109501498D01*
X201475812Y-109549488D01*
X201501211Y-109599026D01*
X201504432Y-109605706D01*
X201526110Y-109653901D01*
X201538696Y-109691463D01*
X201544426Y-109727289D01*
X201545544Y-109769329D01*
X201544910Y-109845529D01*
X202699349Y-109845529D01*
X202608185Y-109751798D01*
X202561388Y-109701904D01*
X202511101Y-109645424D01*
X202465056Y-109591155D01*
X202444631Y-109565802D01*
X202414193Y-109526257D01*
X202374138Y-109473045D01*
X202325639Y-109407796D01*
X202269865Y-109332140D01*
X202207989Y-109247706D01*
X202141181Y-109156123D01*
X202070613Y-109059021D01*
X201997455Y-108958030D01*
X201922879Y-108854779D01*
X201848056Y-108750897D01*
X201774157Y-108648014D01*
X201702354Y-108547760D01*
X201633816Y-108451765D01*
X201569716Y-108361656D01*
X201511225Y-108279065D01*
X201459514Y-108205621D01*
X201415753Y-108142953D01*
X201381115Y-108092690D01*
X201356770Y-108056463D01*
X201343889Y-108035900D01*
X201342131Y-108031797D01*
X201350090Y-108020471D01*
X201370885Y-107993291D01*
X201403153Y-107951958D01*
X201445530Y-107898173D01*
X201496653Y-107833635D01*
X201555159Y-107760047D01*
X201619686Y-107679107D01*
X201688869Y-107592517D01*
X201761347Y-107501977D01*
X201835754Y-107409189D01*
X201895483Y-107334831D01*
X202906489Y-107334831D01*
X202912398Y-107347788D01*
X202926728Y-107370037D01*
X202927775Y-107371520D01*
X202946562Y-107401673D01*
X202966209Y-107438504D01*
X202970108Y-107446640D01*
X202973644Y-107455069D01*
X202976770Y-107465188D01*
X202979514Y-107478389D01*
X202981908Y-107496067D01*
X202983981Y-107519613D01*
X202985765Y-107550422D01*
X202987288Y-107589886D01*
X202988581Y-107639398D01*
X202989674Y-107700352D01*
X202990597Y-107774140D01*
X202991381Y-107862157D01*
X202992055Y-107965794D01*
X202992650Y-108086445D01*
X202993195Y-108225503D01*
X202993721Y-108384361D01*
X202994255Y-108563218D01*
X202994794Y-108748336D01*
X202995228Y-108912274D01*
X202995491Y-109056432D01*
X202995516Y-109182208D01*
X202995235Y-109291000D01*
X202994581Y-109384206D01*
X202993486Y-109463226D01*
X202991882Y-109529457D01*
X202989703Y-109584299D01*
X202986881Y-109629150D01*
X202983349Y-109665407D01*
X202979039Y-109694470D01*
X202973883Y-109717738D01*
X202967815Y-109736608D01*
X202960767Y-109752480D01*
X202952671Y-109766751D01*
X202943460Y-109780820D01*
X202934960Y-109793287D01*
X202917824Y-109819581D01*
X202907678Y-109837166D01*
X202906489Y-109840386D01*
X202917396Y-109841463D01*
X202948589Y-109842464D01*
X202997777Y-109843364D01*
X203062667Y-109844139D01*
X203140970Y-109844766D01*
X203230393Y-109845220D01*
X203328644Y-109845478D01*
X203397555Y-109845529D01*
X203502548Y-109845309D01*
X203599390Y-109844677D01*
X203685893Y-109843678D01*
X203759868Y-109842356D01*
X203819126Y-109840755D01*
X203861480Y-109838920D01*
X203884740Y-109836894D01*
X203888622Y-109835622D01*
X203880924Y-109820720D01*
X203872926Y-109812689D01*
X203859754Y-109795563D01*
X203842515Y-109765312D01*
X203830593Y-109740751D01*
X203803955Y-109681840D01*
X203800880Y-108504974D01*
X203797805Y-107328107D01*
X203352147Y-107328107D01*
X203254330Y-107328271D01*
X203163936Y-107328740D01*
X203083370Y-107329476D01*
X203015038Y-107330445D01*
X202961344Y-107331609D01*
X202924695Y-107332932D01*
X202907496Y-107334378D01*
X202906489Y-107334831D01*
X201895483Y-107334831D01*
X201910730Y-107315851D01*
X201984910Y-107223666D01*
X202056931Y-107134333D01*
X202125431Y-107049553D01*
X202189045Y-106971027D01*
X202246412Y-106900455D01*
X202296167Y-106839538D01*
X202336948Y-106789976D01*
X202354112Y-106769307D01*
X202440404Y-106668645D01*
X202517003Y-106585388D01*
X202585817Y-106517567D01*
X202648752Y-106463218D01*
X202658133Y-106455851D01*
X202697644Y-106425246D01*
X201565884Y-106424996D01*
X201571173Y-106472973D01*
X201567870Y-106530317D01*
X201546339Y-106598592D01*
X201506365Y-106678341D01*
X201461057Y-106750624D01*
X201444839Y-106773269D01*
X201416786Y-106810825D01*
X201378570Y-106861150D01*
X201331863Y-106922102D01*
X201278339Y-106991540D01*
X201219669Y-107067323D01*
X201157525Y-107147309D01*
X201093579Y-107229357D01*
X201029505Y-107311325D01*
X200966973Y-107391072D01*
X200907657Y-107466456D01*
X200853229Y-107535336D01*
X200805361Y-107595571D01*
X200765725Y-107645018D01*
X200735994Y-107681537D01*
X200717839Y-107702987D01*
X200714780Y-107706285D01*
X200711921Y-107698278D01*
X200709707Y-107667984D01*
X200708143Y-107615685D01*
X200707233Y-107541660D01*
X200706980Y-107446192D01*
X200707387Y-107329563D01*
X200708296Y-107209574D01*
X200709618Y-107077462D01*
X200711143Y-106965723D01*
X200713119Y-106872154D01*
X200715794Y-106794548D01*
X200719418Y-106730703D01*
X200724239Y-106678412D01*
X200730506Y-106635473D01*
X200738468Y-106599680D01*
X200748373Y-106568829D01*
X200760469Y-106540715D01*
X200775007Y-106513134D01*
X200789689Y-106488095D01*
X200827686Y-106424996D01*
X199767803Y-106424996D01*
X199464966Y-106424996D01*
X199464999Y-106418746D01*
X199465805Y-106316673D01*
X199466830Y-106227762D01*
X199468100Y-106151070D01*
X199469640Y-106085656D01*
X199471476Y-106030578D01*
X199473633Y-105984894D01*
X199476137Y-105947663D01*
X199479013Y-105917942D01*
X199482287Y-105894791D01*
X199485985Y-105877268D01*
X199490131Y-105864430D01*
X199494753Y-105855337D01*
X199499874Y-105849047D01*
X199505522Y-105844617D01*
X199511721Y-105841107D01*
X199518496Y-105837574D01*
X199524492Y-105834005D01*
X199529725Y-105831429D01*
X199537901Y-105829101D01*
X199550114Y-105827007D01*
X199567459Y-105825136D01*
X199591031Y-105823476D01*
X199621923Y-105822013D01*
X199661232Y-105820737D01*
X199710050Y-105819633D01*
X199769473Y-105818690D01*
X199840596Y-105817896D01*
X199924512Y-105817238D01*
X200022317Y-105816704D01*
X200135106Y-105816282D01*
X200263971Y-105815958D01*
X200410009Y-105815721D01*
X200574314Y-105815559D01*
X200757980Y-105815459D01*
X200962103Y-105815409D01*
X201173247Y-105815396D01*
X202793600Y-105815396D01*
X202793600Y-105912183D01*
X202793600Y-105912183D01*
G37*
X202793600Y-105912183D02*
X202804465Y-106026122D01*
X202836082Y-106133745D01*
X202886985Y-106232744D01*
X202955707Y-106320813D01*
X203040781Y-106395645D01*
X203137768Y-106453513D01*
X203244036Y-106493134D01*
X203351050Y-106511702D01*
X203456700Y-106510563D01*
X203558875Y-106491059D01*
X203655466Y-106454535D01*
X203744362Y-106402334D01*
X203823454Y-106335802D01*
X203890631Y-106256281D01*
X203943783Y-106165116D01*
X203980801Y-106063652D01*
X203999573Y-105953231D01*
X204001511Y-105903335D01*
X204001511Y-105815396D01*
X204053440Y-105815396D01*
X204089747Y-105818240D01*
X204116645Y-105830040D01*
X204143751Y-105853778D01*
X204182133Y-105892160D01*
X204182133Y-108083731D01*
X204182124Y-108345868D01*
X204182092Y-108586370D01*
X204182028Y-108806177D01*
X204181924Y-109006230D01*
X204181773Y-109187473D01*
X204181566Y-109350845D01*
X204181294Y-109497289D01*
X204180950Y-109627746D01*
X204180526Y-109743158D01*
X204180013Y-109844467D01*
X204179403Y-109932613D01*
X204178688Y-110008539D01*
X204177860Y-110073186D01*
X204176911Y-110127496D01*
X204175833Y-110172409D01*
X204174617Y-110208869D01*
X204173255Y-110237816D01*
X204171739Y-110260192D01*
X204170062Y-110276938D01*
X204168214Y-110288997D01*
X204166187Y-110297309D01*
X204163975Y-110302816D01*
X204162892Y-110304666D01*
X204158729Y-110311678D01*
X204155195Y-110318125D01*
X204151365Y-110324029D01*
X204146318Y-110329415D01*
X204139129Y-110334307D01*
X204128877Y-110338727D01*
X204114636Y-110342701D01*
X204095486Y-110346250D01*
X204070501Y-110349399D01*
X204038760Y-110352171D01*
X203999338Y-110354590D01*
X203951314Y-110356680D01*
X203893763Y-110358464D01*
X203825763Y-110359966D01*
X203746390Y-110361209D01*
X203654721Y-110362218D01*
X203549834Y-110363014D01*
X203430804Y-110363623D01*
X203296710Y-110364068D01*
X203146627Y-110364372D01*
X202979633Y-110364559D01*
X202794804Y-110364653D01*
X202591217Y-110364677D01*
X202367950Y-110364654D01*
X202124078Y-110364609D01*
X201858679Y-110364566D01*
X201820296Y-110364561D01*
X201553318Y-110364518D01*
X201307998Y-110364447D01*
X201083417Y-110364342D01*
X200878655Y-110364195D01*
X200692794Y-110363998D01*
X200524912Y-110363745D01*
X200374092Y-110363429D01*
X200239413Y-110363042D01*
X200119956Y-110362576D01*
X200014801Y-110362026D01*
X199923029Y-110361382D01*
X199843721Y-110360640D01*
X199775957Y-110359790D01*
X199718818Y-110358826D01*
X199671383Y-110357740D01*
X199632734Y-110356526D01*
X199601951Y-110355176D01*
X199578115Y-110353684D01*
X199560306Y-110352040D01*
X199547605Y-110350240D01*
X199539092Y-110348274D01*
X199534734Y-110346606D01*
X199526272Y-110343035D01*
X199518503Y-110340399D01*
X199511398Y-110337763D01*
X199504927Y-110334191D01*
X199499061Y-110328750D01*
X199493771Y-110320504D01*
X199489026Y-110308519D01*
X199484798Y-110291860D01*
X199481057Y-110269592D01*
X199477773Y-110240781D01*
X199474917Y-110204492D01*
X199472460Y-110159790D01*
X199470371Y-110105740D01*
X199468622Y-110041408D01*
X199467183Y-109965859D01*
X199466024Y-109878159D01*
X199465117Y-109777372D01*
X199464431Y-109662563D01*
X199463937Y-109532799D01*
X199463605Y-109387144D01*
X199463407Y-109224664D01*
X199463313Y-109044424D01*
X199463292Y-108845489D01*
X199463315Y-108626925D01*
X199463354Y-108387797D01*
X199463378Y-108127169D01*
X199463378Y-108085018D01*
X199463364Y-107822121D01*
X199463339Y-107580861D01*
X199463329Y-107360294D01*
X199463358Y-107159481D01*
X199463452Y-106977478D01*
X199463638Y-106813345D01*
X199463941Y-106666140D01*
X199464386Y-106534921D01*
X199464966Y-106424996D01*
X199767803Y-106424996D01*
X199807593Y-106482840D01*
X199818764Y-106498608D01*
X199828834Y-106512570D01*
X199837862Y-106525913D01*
X199845903Y-106539822D01*
X199853014Y-106555485D01*
X199859253Y-106574087D01*
X199864675Y-106596815D01*
X199869338Y-106624856D01*
X199873299Y-106659396D01*
X199876615Y-106701621D01*
X199879341Y-106752718D01*
X199881536Y-106813873D01*
X199883255Y-106886273D01*
X199884556Y-106971104D01*
X199885495Y-107069551D01*
X199886130Y-107182803D01*
X199886516Y-107312045D01*
X199886712Y-107458463D01*
X199886773Y-107623245D01*
X199886757Y-107807576D01*
X199886720Y-108012642D01*
X199886711Y-108135262D01*
X199886735Y-108352211D01*
X199886769Y-108547771D01*
X199886757Y-108723128D01*
X199886642Y-108879470D01*
X199886370Y-109017986D01*
X199885882Y-109139863D01*
X199885124Y-109246289D01*
X199884038Y-109338451D01*
X199882569Y-109417538D01*
X199880660Y-109484737D01*
X199878256Y-109541236D01*
X199875299Y-109588222D01*
X199871734Y-109626884D01*
X199867505Y-109658409D01*
X199862554Y-109683984D01*
X199856827Y-109704799D01*
X199850267Y-109722040D01*
X199842817Y-109736894D01*
X199834421Y-109750551D01*
X199825024Y-109764198D01*
X199814568Y-109779022D01*
X199808477Y-109787912D01*
X199769704Y-109845529D01*
X200301268Y-109845529D01*
X200424517Y-109845494D01*
X200527013Y-109845344D01*
X200610580Y-109845007D01*
X200677044Y-109844415D01*
X200728229Y-109843496D01*
X200765959Y-109842180D01*
X200792060Y-109840398D01*
X200808356Y-109838080D01*
X200816672Y-109835155D01*
X200818832Y-109831553D01*
X200816661Y-109827204D01*
X200815465Y-109825774D01*
X200790315Y-109788702D01*
X200764417Y-109735901D01*
X200740808Y-109673899D01*
X200732539Y-109647486D01*
X200727922Y-109629545D01*
X200724021Y-109608484D01*
X200720752Y-109582218D01*
X200718034Y-109548661D01*
X200715785Y-109505728D01*
X200713923Y-109451333D01*
X200712364Y-109383391D01*
X200711028Y-109299817D01*
X200709831Y-109198524D01*
X200708692Y-109077429D01*
X200708315Y-109032729D01*
X200707298Y-108907578D01*
X200706540Y-108803211D01*
X200706097Y-108717836D01*
X200706030Y-108649662D01*
X200706395Y-108596894D01*
X200707252Y-108557743D01*
X200708659Y-108530414D01*
X200710675Y-108513115D01*
X200713357Y-108504055D01*
X200716764Y-108501441D01*
X200720956Y-108503480D01*
X200725429Y-108507796D01*
X200735784Y-108520731D01*
X200757842Y-108549805D01*
X200790043Y-108592888D01*
X200830826Y-108647847D01*
X200878630Y-108712552D01*
X200931895Y-108784871D01*
X200989060Y-108862673D01*
X201048563Y-108943827D01*
X201108845Y-109026201D01*
X201168345Y-109107665D01*
X201225502Y-109186086D01*
X201278755Y-109259333D01*
X201326543Y-109325276D01*
X201367307Y-109381783D01*
X201399484Y-109426722D01*
X201421515Y-109457963D01*
X201426083Y-109464595D01*
X201449004Y-109501498D01*
X201475812Y-109549488D01*
X201501211Y-109599026D01*
X201504432Y-109605706D01*
X201526110Y-109653901D01*
X201538696Y-109691463D01*
X201544426Y-109727289D01*
X201545544Y-109769329D01*
X201544910Y-109845529D01*
X202699349Y-109845529D01*
X202608185Y-109751798D01*
X202561388Y-109701904D01*
X202511101Y-109645424D01*
X202465056Y-109591155D01*
X202444631Y-109565802D01*
X202414193Y-109526257D01*
X202374138Y-109473045D01*
X202325639Y-109407796D01*
X202269865Y-109332140D01*
X202207989Y-109247706D01*
X202141181Y-109156123D01*
X202070613Y-109059021D01*
X201997455Y-108958030D01*
X201922879Y-108854779D01*
X201848056Y-108750897D01*
X201774157Y-108648014D01*
X201702354Y-108547760D01*
X201633816Y-108451765D01*
X201569716Y-108361656D01*
X201511225Y-108279065D01*
X201459514Y-108205621D01*
X201415753Y-108142953D01*
X201381115Y-108092690D01*
X201356770Y-108056463D01*
X201343889Y-108035900D01*
X201342131Y-108031797D01*
X201350090Y-108020471D01*
X201370885Y-107993291D01*
X201403153Y-107951958D01*
X201445530Y-107898173D01*
X201496653Y-107833635D01*
X201555159Y-107760047D01*
X201619686Y-107679107D01*
X201688869Y-107592517D01*
X201761347Y-107501977D01*
X201835754Y-107409189D01*
X201895483Y-107334831D01*
X202906489Y-107334831D01*
X202912398Y-107347788D01*
X202926728Y-107370037D01*
X202927775Y-107371520D01*
X202946562Y-107401673D01*
X202966209Y-107438504D01*
X202970108Y-107446640D01*
X202973644Y-107455069D01*
X202976770Y-107465188D01*
X202979514Y-107478389D01*
X202981908Y-107496067D01*
X202983981Y-107519613D01*
X202985765Y-107550422D01*
X202987288Y-107589886D01*
X202988581Y-107639398D01*
X202989674Y-107700352D01*
X202990597Y-107774140D01*
X202991381Y-107862157D01*
X202992055Y-107965794D01*
X202992650Y-108086445D01*
X202993195Y-108225503D01*
X202993721Y-108384361D01*
X202994255Y-108563218D01*
X202994794Y-108748336D01*
X202995228Y-108912274D01*
X202995491Y-109056432D01*
X202995516Y-109182208D01*
X202995235Y-109291000D01*
X202994581Y-109384206D01*
X202993486Y-109463226D01*
X202991882Y-109529457D01*
X202989703Y-109584299D01*
X202986881Y-109629150D01*
X202983349Y-109665407D01*
X202979039Y-109694470D01*
X202973883Y-109717738D01*
X202967815Y-109736608D01*
X202960767Y-109752480D01*
X202952671Y-109766751D01*
X202943460Y-109780820D01*
X202934960Y-109793287D01*
X202917824Y-109819581D01*
X202907678Y-109837166D01*
X202906489Y-109840386D01*
X202917396Y-109841463D01*
X202948589Y-109842464D01*
X202997777Y-109843364D01*
X203062667Y-109844139D01*
X203140970Y-109844766D01*
X203230393Y-109845220D01*
X203328644Y-109845478D01*
X203397555Y-109845529D01*
X203502548Y-109845309D01*
X203599390Y-109844677D01*
X203685893Y-109843678D01*
X203759868Y-109842356D01*
X203819126Y-109840755D01*
X203861480Y-109838920D01*
X203884740Y-109836894D01*
X203888622Y-109835622D01*
X203880924Y-109820720D01*
X203872926Y-109812689D01*
X203859754Y-109795563D01*
X203842515Y-109765312D01*
X203830593Y-109740751D01*
X203803955Y-109681840D01*
X203800880Y-108504974D01*
X203797805Y-107328107D01*
X203352147Y-107328107D01*
X203254330Y-107328271D01*
X203163936Y-107328740D01*
X203083370Y-107329476D01*
X203015038Y-107330445D01*
X202961344Y-107331609D01*
X202924695Y-107332932D01*
X202907496Y-107334378D01*
X202906489Y-107334831D01*
X201895483Y-107334831D01*
X201910730Y-107315851D01*
X201984910Y-107223666D01*
X202056931Y-107134333D01*
X202125431Y-107049553D01*
X202189045Y-106971027D01*
X202246412Y-106900455D01*
X202296167Y-106839538D01*
X202336948Y-106789976D01*
X202354112Y-106769307D01*
X202440404Y-106668645D01*
X202517003Y-106585388D01*
X202585817Y-106517567D01*
X202648752Y-106463218D01*
X202658133Y-106455851D01*
X202697644Y-106425246D01*
X201565884Y-106424996D01*
X201571173Y-106472973D01*
X201567870Y-106530317D01*
X201546339Y-106598592D01*
X201506365Y-106678341D01*
X201461057Y-106750624D01*
X201444839Y-106773269D01*
X201416786Y-106810825D01*
X201378570Y-106861150D01*
X201331863Y-106922102D01*
X201278339Y-106991540D01*
X201219669Y-107067323D01*
X201157525Y-107147309D01*
X201093579Y-107229357D01*
X201029505Y-107311325D01*
X200966973Y-107391072D01*
X200907657Y-107466456D01*
X200853229Y-107535336D01*
X200805361Y-107595571D01*
X200765725Y-107645018D01*
X200735994Y-107681537D01*
X200717839Y-107702987D01*
X200714780Y-107706285D01*
X200711921Y-107698278D01*
X200709707Y-107667984D01*
X200708143Y-107615685D01*
X200707233Y-107541660D01*
X200706980Y-107446192D01*
X200707387Y-107329563D01*
X200708296Y-107209574D01*
X200709618Y-107077462D01*
X200711143Y-106965723D01*
X200713119Y-106872154D01*
X200715794Y-106794548D01*
X200719418Y-106730703D01*
X200724239Y-106678412D01*
X200730506Y-106635473D01*
X200738468Y-106599680D01*
X200748373Y-106568829D01*
X200760469Y-106540715D01*
X200775007Y-106513134D01*
X200789689Y-106488095D01*
X200827686Y-106424996D01*
X199767803Y-106424996D01*
X199464966Y-106424996D01*
X199464999Y-106418746D01*
X199465805Y-106316673D01*
X199466830Y-106227762D01*
X199468100Y-106151070D01*
X199469640Y-106085656D01*
X199471476Y-106030578D01*
X199473633Y-105984894D01*
X199476137Y-105947663D01*
X199479013Y-105917942D01*
X199482287Y-105894791D01*
X199485985Y-105877268D01*
X199490131Y-105864430D01*
X199494753Y-105855337D01*
X199499874Y-105849047D01*
X199505522Y-105844617D01*
X199511721Y-105841107D01*
X199518496Y-105837574D01*
X199524492Y-105834005D01*
X199529725Y-105831429D01*
X199537901Y-105829101D01*
X199550114Y-105827007D01*
X199567459Y-105825136D01*
X199591031Y-105823476D01*
X199621923Y-105822013D01*
X199661232Y-105820737D01*
X199710050Y-105819633D01*
X199769473Y-105818690D01*
X199840596Y-105817896D01*
X199924512Y-105817238D01*
X200022317Y-105816704D01*
X200135106Y-105816282D01*
X200263971Y-105815958D01*
X200410009Y-105815721D01*
X200574314Y-105815559D01*
X200757980Y-105815459D01*
X200962103Y-105815409D01*
X201173247Y-105815396D01*
X202793600Y-105815396D01*
X202793600Y-105912183D01*
G36*
X70648286Y-107569000D02*
G01*
X67908714Y-107569000D01*
X67908714Y-107496429D01*
X70648286Y-107496429D01*
X70648286Y-107569000D01*
X70648286Y-107569000D01*
G37*
X70648286Y-107569000D02*
X67908714Y-107569000D01*
X67908714Y-107496429D01*
X70648286Y-107496429D01*
X70648286Y-107569000D01*
G36*
X55063571Y-107696000D02*
G01*
X54854928Y-107696000D01*
X54854928Y-107596214D01*
X55063571Y-107596214D01*
X55063571Y-107696000D01*
X55063571Y-107696000D01*
G37*
X55063571Y-107696000D02*
X54854928Y-107696000D01*
X54854928Y-107596214D01*
X55063571Y-107596214D01*
X55063571Y-107696000D01*
G36*
X70648286Y-107768571D02*
G01*
X67908714Y-107768571D01*
X67908714Y-107696000D01*
X70648286Y-107696000D01*
X70648286Y-107768571D01*
X70648286Y-107768571D01*
G37*
X70648286Y-107768571D02*
X67908714Y-107768571D01*
X67908714Y-107696000D01*
X70648286Y-107696000D01*
X70648286Y-107768571D01*
G36*
X62347929Y-107795786D02*
G01*
X62148357Y-107795786D01*
X62148357Y-107696000D01*
X62347929Y-107696000D01*
X62347929Y-107795786D01*
X62347929Y-107795786D01*
G37*
X62347929Y-107795786D02*
X62148357Y-107795786D01*
X62148357Y-107696000D01*
X62347929Y-107696000D01*
X62347929Y-107795786D01*
G36*
X70648286Y-107968143D02*
G01*
X67908714Y-107968143D01*
X67908714Y-107895571D01*
X70648286Y-107895571D01*
X70648286Y-107968143D01*
X70648286Y-107968143D01*
G37*
X70648286Y-107968143D02*
X67908714Y-107968143D01*
X67908714Y-107895571D01*
X70648286Y-107895571D01*
X70648286Y-107968143D01*
G36*
X70648286Y-108167714D02*
G01*
X67908714Y-108167714D01*
X67908714Y-108095143D01*
X70648286Y-108095143D01*
X70648286Y-108167714D01*
X70648286Y-108167714D01*
G37*
X70648286Y-108167714D02*
X67908714Y-108167714D01*
X67908714Y-108095143D01*
X70648286Y-108095143D01*
X70648286Y-108167714D01*
G36*
X67207441Y-107817657D02*
G01*
X67217485Y-107826785D01*
X67224538Y-107836158D01*
X67229219Y-107849048D01*
X67232149Y-107868726D01*
X67233948Y-107898461D01*
X67235239Y-107941524D01*
X67235846Y-107967336D01*
X67238800Y-108095143D01*
X66838286Y-108095143D01*
X66838286Y-108194929D01*
X67137643Y-108194929D01*
X67137643Y-108294714D01*
X66922196Y-108294139D01*
X66860466Y-108293655D01*
X66803980Y-108292608D01*
X66755539Y-108291099D01*
X66717944Y-108289228D01*
X66693995Y-108287095D01*
X66687310Y-108285719D01*
X66672154Y-108278496D01*
X66660512Y-108269067D01*
X66651922Y-108255135D01*
X66645928Y-108234404D01*
X66642069Y-108204577D01*
X66639886Y-108163355D01*
X66638921Y-108108443D01*
X66638714Y-108042534D01*
X66638714Y-107895571D01*
X66838286Y-107895571D01*
X66838286Y-107995357D01*
X67037857Y-107995357D01*
X67037857Y-107895571D01*
X66838286Y-107895571D01*
X66638714Y-107895571D01*
X66638714Y-107848819D01*
X66691747Y-107795786D01*
X67181988Y-107795786D01*
X67207441Y-107817657D01*
X67207441Y-107817657D01*
G37*
X67207441Y-107817657D02*
X67217485Y-107826785D01*
X67224538Y-107836158D01*
X67229219Y-107849048D01*
X67232149Y-107868726D01*
X67233948Y-107898461D01*
X67235239Y-107941524D01*
X67235846Y-107967336D01*
X67238800Y-108095143D01*
X66838286Y-108095143D01*
X66838286Y-108194929D01*
X67137643Y-108194929D01*
X67137643Y-108294714D01*
X66922196Y-108294139D01*
X66860466Y-108293655D01*
X66803980Y-108292608D01*
X66755539Y-108291099D01*
X66717944Y-108289228D01*
X66693995Y-108287095D01*
X66687310Y-108285719D01*
X66672154Y-108278496D01*
X66660512Y-108269067D01*
X66651922Y-108255135D01*
X66645928Y-108234404D01*
X66642069Y-108204577D01*
X66639886Y-108163355D01*
X66638921Y-108108443D01*
X66638714Y-108042534D01*
X66638714Y-107895571D01*
X66838286Y-107895571D01*
X66838286Y-107995357D01*
X67037857Y-107995357D01*
X67037857Y-107895571D01*
X66838286Y-107895571D01*
X66638714Y-107895571D01*
X66638714Y-107848819D01*
X66691747Y-107795786D01*
X67181988Y-107795786D01*
X67207441Y-107817657D01*
G36*
X66439143Y-108294714D02*
G01*
X66173803Y-108294139D01*
X66105343Y-108293731D01*
X66042101Y-108292859D01*
X65986545Y-108291598D01*
X65941148Y-108290018D01*
X65908378Y-108288195D01*
X65890707Y-108286200D01*
X65889024Y-108285719D01*
X65871937Y-108277058D01*
X65859343Y-108265091D01*
X65850577Y-108247174D01*
X65844973Y-108220659D01*
X65841866Y-108182901D01*
X65840591Y-108131253D01*
X65840428Y-108092427D01*
X65840428Y-107995357D01*
X66040000Y-107995357D01*
X66040000Y-108194929D01*
X66239571Y-108194929D01*
X66239571Y-107995357D01*
X66040000Y-107995357D01*
X65840428Y-107995357D01*
X65840428Y-107948604D01*
X65866945Y-107922088D01*
X65893461Y-107895571D01*
X66239571Y-107895571D01*
X66239571Y-107696000D01*
X66439143Y-107696000D01*
X66439143Y-108294714D01*
X66439143Y-108294714D01*
G37*
X66439143Y-108294714D02*
X66173803Y-108294139D01*
X66105343Y-108293731D01*
X66042101Y-108292859D01*
X65986545Y-108291598D01*
X65941148Y-108290018D01*
X65908378Y-108288195D01*
X65890707Y-108286200D01*
X65889024Y-108285719D01*
X65871937Y-108277058D01*
X65859343Y-108265091D01*
X65850577Y-108247174D01*
X65844973Y-108220659D01*
X65841866Y-108182901D01*
X65840591Y-108131253D01*
X65840428Y-108092427D01*
X65840428Y-107995357D01*
X66040000Y-107995357D01*
X66040000Y-108194929D01*
X66239571Y-108194929D01*
X66239571Y-107995357D01*
X66040000Y-107995357D01*
X65840428Y-107995357D01*
X65840428Y-107948604D01*
X65866945Y-107922088D01*
X65893461Y-107895571D01*
X66239571Y-107895571D01*
X66239571Y-107696000D01*
X66439143Y-107696000D01*
X66439143Y-108294714D01*
G36*
X65441286Y-108294714D02*
G01*
X65241714Y-108294714D01*
X65241714Y-108095143D01*
X65441286Y-108095143D01*
X65441286Y-108294714D01*
X65441286Y-108294714D01*
G37*
X65441286Y-108294714D02*
X65241714Y-108294714D01*
X65241714Y-108095143D01*
X65441286Y-108095143D01*
X65441286Y-108294714D01*
G36*
X64643000Y-107795786D02*
G01*
X64842571Y-107795786D01*
X64842571Y-107895571D01*
X64643000Y-107895571D01*
X64643000Y-108194929D01*
X64842571Y-108194929D01*
X64842571Y-108294714D01*
X64677018Y-108294139D01*
X64622780Y-108293537D01*
X64573799Y-108292216D01*
X64533381Y-108290328D01*
X64504831Y-108288022D01*
X64492024Y-108285719D01*
X64476063Y-108277916D01*
X64464011Y-108267482D01*
X64455327Y-108251971D01*
X64449470Y-108228938D01*
X64445901Y-108195937D01*
X64444078Y-108150523D01*
X64443460Y-108090250D01*
X64443428Y-108065910D01*
X64443428Y-107895571D01*
X64243857Y-107895571D01*
X64243857Y-107795786D01*
X64443428Y-107795786D01*
X64443428Y-107696000D01*
X64643000Y-107696000D01*
X64643000Y-107795786D01*
X64643000Y-107795786D01*
G37*
X64643000Y-107795786D02*
X64842571Y-107795786D01*
X64842571Y-107895571D01*
X64643000Y-107895571D01*
X64643000Y-108194929D01*
X64842571Y-108194929D01*
X64842571Y-108294714D01*
X64677018Y-108294139D01*
X64622780Y-108293537D01*
X64573799Y-108292216D01*
X64533381Y-108290328D01*
X64504831Y-108288022D01*
X64492024Y-108285719D01*
X64476063Y-108277916D01*
X64464011Y-108267482D01*
X64455327Y-108251971D01*
X64449470Y-108228938D01*
X64445901Y-108195937D01*
X64444078Y-108150523D01*
X64443460Y-108090250D01*
X64443428Y-108065910D01*
X64443428Y-107895571D01*
X64243857Y-107895571D01*
X64243857Y-107795786D01*
X64443428Y-107795786D01*
X64443428Y-107696000D01*
X64643000Y-107696000D01*
X64643000Y-107795786D01*
G36*
X63944500Y-107895571D02*
G01*
X63645143Y-107895571D01*
X63645143Y-108194929D01*
X63944500Y-108194929D01*
X63944500Y-108294714D01*
X63729054Y-108294139D01*
X63667323Y-108293655D01*
X63610837Y-108292608D01*
X63562396Y-108291099D01*
X63524801Y-108289228D01*
X63500852Y-108287095D01*
X63494167Y-108285719D01*
X63478829Y-108278367D01*
X63467092Y-108268717D01*
X63458479Y-108254438D01*
X63452512Y-108233199D01*
X63448716Y-108202670D01*
X63446613Y-108160520D01*
X63445726Y-108104418D01*
X63445571Y-108048194D01*
X63445865Y-107978003D01*
X63447011Y-107923672D01*
X63449406Y-107882923D01*
X63453447Y-107853479D01*
X63459531Y-107833062D01*
X63468055Y-107819395D01*
X63479417Y-107810201D01*
X63487820Y-107805858D01*
X63505550Y-107802220D01*
X63540549Y-107799359D01*
X63591958Y-107797311D01*
X63658918Y-107796111D01*
X63727212Y-107795786D01*
X63944500Y-107795786D01*
X63944500Y-107895571D01*
X63944500Y-107895571D01*
G37*
X63944500Y-107895571D02*
X63645143Y-107895571D01*
X63645143Y-108194929D01*
X63944500Y-108194929D01*
X63944500Y-108294714D01*
X63729054Y-108294139D01*
X63667323Y-108293655D01*
X63610837Y-108292608D01*
X63562396Y-108291099D01*
X63524801Y-108289228D01*
X63500852Y-108287095D01*
X63494167Y-108285719D01*
X63478829Y-108278367D01*
X63467092Y-108268717D01*
X63458479Y-108254438D01*
X63452512Y-108233199D01*
X63448716Y-108202670D01*
X63446613Y-108160520D01*
X63445726Y-108104418D01*
X63445571Y-108048194D01*
X63445865Y-107978003D01*
X63447011Y-107923672D01*
X63449406Y-107882923D01*
X63453447Y-107853479D01*
X63459531Y-107833062D01*
X63468055Y-107819395D01*
X63479417Y-107810201D01*
X63487820Y-107805858D01*
X63505550Y-107802220D01*
X63540549Y-107799359D01*
X63591958Y-107797311D01*
X63658918Y-107796111D01*
X63727212Y-107795786D01*
X63944500Y-107795786D01*
X63944500Y-107895571D01*
G36*
X63009164Y-107795780D02*
G01*
X63066234Y-107796622D01*
X63117099Y-107798037D01*
X63158743Y-107800030D01*
X63188147Y-107802601D01*
X63202007Y-107805587D01*
X63219529Y-107820275D01*
X63232146Y-107844247D01*
X63240399Y-107879724D01*
X63244831Y-107928929D01*
X63246000Y-107985994D01*
X63246000Y-108095143D01*
X62846857Y-108095143D01*
X62846857Y-108194929D01*
X63146214Y-108194929D01*
X63146214Y-108294714D01*
X62930768Y-108294139D01*
X62869037Y-108293655D01*
X62812551Y-108292608D01*
X62764110Y-108291099D01*
X62726515Y-108289228D01*
X62702566Y-108287095D01*
X62695881Y-108285719D01*
X62680544Y-108278367D01*
X62668806Y-108268717D01*
X62660193Y-108254438D01*
X62654227Y-108233199D01*
X62650430Y-108202670D01*
X62648327Y-108160520D01*
X62647440Y-108104418D01*
X62647286Y-108048194D01*
X62647579Y-107978003D01*
X62648725Y-107923672D01*
X62650376Y-107895571D01*
X62846857Y-107895571D01*
X62846857Y-107995357D01*
X63046429Y-107995357D01*
X63046429Y-107895571D01*
X62846857Y-107895571D01*
X62650376Y-107895571D01*
X62651120Y-107882923D01*
X62655161Y-107853479D01*
X62661245Y-107833062D01*
X62669770Y-107819395D01*
X62681131Y-107810201D01*
X62689534Y-107805858D01*
X62705510Y-107802719D01*
X62736412Y-107800144D01*
X62779221Y-107798134D01*
X62830920Y-107796691D01*
X62888489Y-107795817D01*
X62948910Y-107795513D01*
X63009164Y-107795780D01*
X63009164Y-107795780D01*
G37*
X63009164Y-107795780D02*
X63066234Y-107796622D01*
X63117099Y-107798037D01*
X63158743Y-107800030D01*
X63188147Y-107802601D01*
X63202007Y-107805587D01*
X63219529Y-107820275D01*
X63232146Y-107844247D01*
X63240399Y-107879724D01*
X63244831Y-107928929D01*
X63246000Y-107985994D01*
X63246000Y-108095143D01*
X62846857Y-108095143D01*
X62846857Y-108194929D01*
X63146214Y-108194929D01*
X63146214Y-108294714D01*
X62930768Y-108294139D01*
X62869037Y-108293655D01*
X62812551Y-108292608D01*
X62764110Y-108291099D01*
X62726515Y-108289228D01*
X62702566Y-108287095D01*
X62695881Y-108285719D01*
X62680544Y-108278367D01*
X62668806Y-108268717D01*
X62660193Y-108254438D01*
X62654227Y-108233199D01*
X62650430Y-108202670D01*
X62648327Y-108160520D01*
X62647440Y-108104418D01*
X62647286Y-108048194D01*
X62647579Y-107978003D01*
X62648725Y-107923672D01*
X62650376Y-107895571D01*
X62846857Y-107895571D01*
X62846857Y-107995357D01*
X63046429Y-107995357D01*
X63046429Y-107895571D01*
X62846857Y-107895571D01*
X62650376Y-107895571D01*
X62651120Y-107882923D01*
X62655161Y-107853479D01*
X62661245Y-107833062D01*
X62669770Y-107819395D01*
X62681131Y-107810201D01*
X62689534Y-107805858D01*
X62705510Y-107802719D01*
X62736412Y-107800144D01*
X62779221Y-107798134D01*
X62830920Y-107796691D01*
X62888489Y-107795817D01*
X62948910Y-107795513D01*
X63009164Y-107795780D01*
G36*
X61412593Y-107795780D02*
G01*
X61469662Y-107796622D01*
X61520528Y-107798037D01*
X61562172Y-107800030D01*
X61591575Y-107802601D01*
X61605436Y-107805587D01*
X61619841Y-107816100D01*
X61630840Y-107831759D01*
X61638850Y-107854830D01*
X61644290Y-107887582D01*
X61647581Y-107932284D01*
X61649142Y-107991201D01*
X61649429Y-108043605D01*
X61648860Y-108105346D01*
X61647249Y-108158882D01*
X61644739Y-108201422D01*
X61641475Y-108230176D01*
X61639374Y-108239208D01*
X61632878Y-108255086D01*
X61624351Y-108267616D01*
X61611742Y-108277186D01*
X61593000Y-108284182D01*
X61566074Y-108288992D01*
X61528913Y-108292002D01*
X61479467Y-108293600D01*
X61415684Y-108294172D01*
X61348254Y-108294139D01*
X61284560Y-108293680D01*
X61226104Y-108292690D01*
X61175580Y-108291260D01*
X61135683Y-108289482D01*
X61109107Y-108287447D01*
X61099310Y-108285719D01*
X61083972Y-108278367D01*
X61072235Y-108268717D01*
X61063622Y-108254438D01*
X61057655Y-108233199D01*
X61053859Y-108202670D01*
X61051755Y-108160520D01*
X61050868Y-108104418D01*
X61050714Y-108048194D01*
X61051008Y-107978003D01*
X61052154Y-107923672D01*
X61053805Y-107895571D01*
X61250286Y-107895571D01*
X61250286Y-108194929D01*
X61449857Y-108194929D01*
X61449857Y-107895571D01*
X61250286Y-107895571D01*
X61053805Y-107895571D01*
X61054549Y-107882923D01*
X61058590Y-107853479D01*
X61064674Y-107833062D01*
X61073198Y-107819395D01*
X61084560Y-107810201D01*
X61092963Y-107805858D01*
X61108939Y-107802719D01*
X61139841Y-107800144D01*
X61182650Y-107798134D01*
X61234348Y-107796691D01*
X61291917Y-107795817D01*
X61352338Y-107795513D01*
X61412593Y-107795780D01*
X61412593Y-107795780D01*
G37*
X61412593Y-107795780D02*
X61469662Y-107796622D01*
X61520528Y-107798037D01*
X61562172Y-107800030D01*
X61591575Y-107802601D01*
X61605436Y-107805587D01*
X61619841Y-107816100D01*
X61630840Y-107831759D01*
X61638850Y-107854830D01*
X61644290Y-107887582D01*
X61647581Y-107932284D01*
X61649142Y-107991201D01*
X61649429Y-108043605D01*
X61648860Y-108105346D01*
X61647249Y-108158882D01*
X61644739Y-108201422D01*
X61641475Y-108230176D01*
X61639374Y-108239208D01*
X61632878Y-108255086D01*
X61624351Y-108267616D01*
X61611742Y-108277186D01*
X61593000Y-108284182D01*
X61566074Y-108288992D01*
X61528913Y-108292002D01*
X61479467Y-108293600D01*
X61415684Y-108294172D01*
X61348254Y-108294139D01*
X61284560Y-108293680D01*
X61226104Y-108292690D01*
X61175580Y-108291260D01*
X61135683Y-108289482D01*
X61109107Y-108287447D01*
X61099310Y-108285719D01*
X61083972Y-108278367D01*
X61072235Y-108268717D01*
X61063622Y-108254438D01*
X61057655Y-108233199D01*
X61053859Y-108202670D01*
X61051755Y-108160520D01*
X61050868Y-108104418D01*
X61050714Y-108048194D01*
X61051008Y-107978003D01*
X61052154Y-107923672D01*
X61053805Y-107895571D01*
X61250286Y-107895571D01*
X61250286Y-108194929D01*
X61449857Y-108194929D01*
X61449857Y-107895571D01*
X61250286Y-107895571D01*
X61053805Y-107895571D01*
X61054549Y-107882923D01*
X61058590Y-107853479D01*
X61064674Y-107833062D01*
X61073198Y-107819395D01*
X61084560Y-107810201D01*
X61092963Y-107805858D01*
X61108939Y-107802719D01*
X61139841Y-107800144D01*
X61182650Y-107798134D01*
X61234348Y-107796691D01*
X61291917Y-107795817D01*
X61352338Y-107795513D01*
X61412593Y-107795780D01*
G36*
X60610050Y-107796135D02*
G01*
X60683505Y-107797172D01*
X60740504Y-107798880D01*
X60780551Y-107801242D01*
X60803154Y-107804241D01*
X60807150Y-107805587D01*
X60827996Y-107826496D01*
X60842648Y-107862204D01*
X60850249Y-107910176D01*
X60851143Y-107936102D01*
X60851143Y-107995357D01*
X60651571Y-107995357D01*
X60651571Y-107895571D01*
X60452000Y-107895571D01*
X60452000Y-108294714D01*
X60252428Y-108294714D01*
X60252428Y-107795786D01*
X60520632Y-107795786D01*
X60610050Y-107796135D01*
X60610050Y-107796135D01*
G37*
X60610050Y-107796135D02*
X60683505Y-107797172D01*
X60740504Y-107798880D01*
X60780551Y-107801242D01*
X60803154Y-107804241D01*
X60807150Y-107805587D01*
X60827996Y-107826496D01*
X60842648Y-107862204D01*
X60850249Y-107910176D01*
X60851143Y-107936102D01*
X60851143Y-107995357D01*
X60651571Y-107995357D01*
X60651571Y-107895571D01*
X60452000Y-107895571D01*
X60452000Y-108294714D01*
X60252428Y-108294714D01*
X60252428Y-107795786D01*
X60520632Y-107795786D01*
X60610050Y-107796135D01*
G36*
X59808254Y-107596558D02*
G01*
X59882585Y-107597579D01*
X59940349Y-107599262D01*
X59981088Y-107601591D01*
X60004348Y-107604551D01*
X60008864Y-107606016D01*
X60025799Y-107619844D01*
X60038125Y-107642078D01*
X60046379Y-107675015D01*
X60051099Y-107720955D01*
X60052823Y-107782198D01*
X60052857Y-107794141D01*
X60052391Y-107854638D01*
X60049634Y-107901605D01*
X60042549Y-107936754D01*
X60029097Y-107961798D01*
X60007241Y-107978448D01*
X59974943Y-107988417D01*
X59930165Y-107993416D01*
X59870869Y-107995158D01*
X59813361Y-107995357D01*
X59653714Y-107995357D01*
X59653714Y-108294714D01*
X59445071Y-108294714D01*
X59445071Y-107696000D01*
X59653714Y-107696000D01*
X59653714Y-107895571D01*
X59853286Y-107895571D01*
X59853286Y-107696000D01*
X59653714Y-107696000D01*
X59445071Y-107696000D01*
X59445071Y-107596214D01*
X59717811Y-107596214D01*
X59808254Y-107596558D01*
X59808254Y-107596558D01*
G37*
X59808254Y-107596558D02*
X59882585Y-107597579D01*
X59940349Y-107599262D01*
X59981088Y-107601591D01*
X60004348Y-107604551D01*
X60008864Y-107606016D01*
X60025799Y-107619844D01*
X60038125Y-107642078D01*
X60046379Y-107675015D01*
X60051099Y-107720955D01*
X60052823Y-107782198D01*
X60052857Y-107794141D01*
X60052391Y-107854638D01*
X60049634Y-107901605D01*
X60042549Y-107936754D01*
X60029097Y-107961798D01*
X60007241Y-107978448D01*
X59974943Y-107988417D01*
X59930165Y-107993416D01*
X59870869Y-107995158D01*
X59813361Y-107995357D01*
X59653714Y-107995357D01*
X59653714Y-108294714D01*
X59445071Y-108294714D01*
X59445071Y-107696000D01*
X59653714Y-107696000D01*
X59653714Y-107895571D01*
X59853286Y-107895571D01*
X59853286Y-107696000D01*
X59653714Y-107696000D01*
X59445071Y-107696000D01*
X59445071Y-107596214D01*
X59717811Y-107596214D01*
X59808254Y-107596558D01*
G36*
X59015690Y-107795624D02*
G01*
X59072956Y-107796430D01*
X59124121Y-107797835D01*
X59166159Y-107799841D01*
X59196042Y-107802454D01*
X59210579Y-107805587D01*
X59228101Y-107820275D01*
X59240717Y-107844247D01*
X59248971Y-107879724D01*
X59253402Y-107928929D01*
X59254571Y-107985994D01*
X59254571Y-108095143D01*
X58855428Y-108095143D01*
X58855428Y-108194929D01*
X59154786Y-108194929D01*
X59154786Y-108294714D01*
X58708890Y-108294714D01*
X58655857Y-108241681D01*
X58656146Y-108043680D01*
X58656383Y-107975653D01*
X58657153Y-107923384D01*
X58658388Y-107895571D01*
X58855428Y-107895571D01*
X58855428Y-107995357D01*
X59055000Y-107995357D01*
X59055000Y-107895571D01*
X58855428Y-107895571D01*
X58658388Y-107895571D01*
X58658880Y-107884491D01*
X58661987Y-107856589D01*
X58666900Y-107837295D01*
X58674041Y-107824224D01*
X58683834Y-107814994D01*
X58696704Y-107807220D01*
X58698350Y-107806339D01*
X58713542Y-107803086D01*
X58743828Y-107800400D01*
X58786179Y-107798285D01*
X58837569Y-107796745D01*
X58894969Y-107795786D01*
X58955352Y-107795410D01*
X59015690Y-107795624D01*
X59015690Y-107795624D01*
G37*
X59015690Y-107795624D02*
X59072956Y-107796430D01*
X59124121Y-107797835D01*
X59166159Y-107799841D01*
X59196042Y-107802454D01*
X59210579Y-107805587D01*
X59228101Y-107820275D01*
X59240717Y-107844247D01*
X59248971Y-107879724D01*
X59253402Y-107928929D01*
X59254571Y-107985994D01*
X59254571Y-108095143D01*
X58855428Y-108095143D01*
X58855428Y-108194929D01*
X59154786Y-108194929D01*
X59154786Y-108294714D01*
X58708890Y-108294714D01*
X58655857Y-108241681D01*
X58656146Y-108043680D01*
X58656383Y-107975653D01*
X58657153Y-107923384D01*
X58658388Y-107895571D01*
X58855428Y-107895571D01*
X58855428Y-107995357D01*
X59055000Y-107995357D01*
X59055000Y-107895571D01*
X58855428Y-107895571D01*
X58658388Y-107895571D01*
X58658880Y-107884491D01*
X58661987Y-107856589D01*
X58666900Y-107837295D01*
X58674041Y-107824224D01*
X58683834Y-107814994D01*
X58696704Y-107807220D01*
X58698350Y-107806339D01*
X58713542Y-107803086D01*
X58743828Y-107800400D01*
X58786179Y-107798285D01*
X58837569Y-107796745D01*
X58894969Y-107795786D01*
X58955352Y-107795410D01*
X59015690Y-107795624D01*
G36*
X57451468Y-107796205D02*
G01*
X57515876Y-107797435D01*
X57565091Y-107799436D01*
X57598132Y-107802169D01*
X57614007Y-107805587D01*
X57627106Y-107814626D01*
X57637372Y-107827490D01*
X57645137Y-107846282D01*
X57650731Y-107873105D01*
X57654482Y-107910060D01*
X57656722Y-107959252D01*
X57657781Y-108022781D01*
X57658000Y-108085780D01*
X57658000Y-108294714D01*
X57114000Y-108294714D01*
X57084585Y-108268432D01*
X57071208Y-108255924D01*
X57062653Y-108244406D01*
X57057831Y-108229589D01*
X57055653Y-108207185D01*
X57055027Y-108172907D01*
X57054960Y-108151888D01*
X57056316Y-108098125D01*
X57056699Y-108095143D01*
X57258857Y-108095143D01*
X57258857Y-108194929D01*
X57458429Y-108194929D01*
X57458429Y-108095143D01*
X57258857Y-108095143D01*
X57056699Y-108095143D01*
X57061305Y-108059324D01*
X57070875Y-108032507D01*
X57085974Y-108014692D01*
X57101531Y-108005431D01*
X57119553Y-108001583D01*
X57153753Y-107998569D01*
X57202182Y-107996493D01*
X57262889Y-107995457D01*
X57291034Y-107995357D01*
X57458429Y-107995357D01*
X57458429Y-107895571D01*
X57150000Y-107895571D01*
X57150000Y-107795786D01*
X57372846Y-107795786D01*
X57451468Y-107796205D01*
X57451468Y-107796205D01*
G37*
X57451468Y-107796205D02*
X57515876Y-107797435D01*
X57565091Y-107799436D01*
X57598132Y-107802169D01*
X57614007Y-107805587D01*
X57627106Y-107814626D01*
X57637372Y-107827490D01*
X57645137Y-107846282D01*
X57650731Y-107873105D01*
X57654482Y-107910060D01*
X57656722Y-107959252D01*
X57657781Y-108022781D01*
X57658000Y-108085780D01*
X57658000Y-108294714D01*
X57114000Y-108294714D01*
X57084585Y-108268432D01*
X57071208Y-108255924D01*
X57062653Y-108244406D01*
X57057831Y-108229589D01*
X57055653Y-108207185D01*
X57055027Y-108172907D01*
X57054960Y-108151888D01*
X57056316Y-108098125D01*
X57056699Y-108095143D01*
X57258857Y-108095143D01*
X57258857Y-108194929D01*
X57458429Y-108194929D01*
X57458429Y-108095143D01*
X57258857Y-108095143D01*
X57056699Y-108095143D01*
X57061305Y-108059324D01*
X57070875Y-108032507D01*
X57085974Y-108014692D01*
X57101531Y-108005431D01*
X57119553Y-108001583D01*
X57153753Y-107998569D01*
X57202182Y-107996493D01*
X57262889Y-107995457D01*
X57291034Y-107995357D01*
X57458429Y-107995357D01*
X57458429Y-107895571D01*
X57150000Y-107895571D01*
X57150000Y-107795786D01*
X57372846Y-107795786D01*
X57451468Y-107796205D01*
G36*
X56660143Y-107795786D02*
G01*
X56859714Y-107795786D01*
X56859714Y-107895571D01*
X56660143Y-107895571D01*
X56660143Y-108194929D01*
X56859714Y-108194929D01*
X56859714Y-108294714D01*
X56694161Y-108294139D01*
X56639883Y-108293528D01*
X56590826Y-108292182D01*
X56550304Y-108290256D01*
X56521634Y-108287903D01*
X56508725Y-108285556D01*
X56492112Y-108277109D01*
X56479408Y-108265277D01*
X56470011Y-108247645D01*
X56463321Y-108221798D01*
X56458737Y-108185321D01*
X56455658Y-108135799D01*
X56453484Y-108070817D01*
X56453274Y-108062611D01*
X56449089Y-107895571D01*
X56251928Y-107895571D01*
X56251928Y-107795786D01*
X56451500Y-107795786D01*
X56451500Y-107696000D01*
X56660143Y-107696000D01*
X56660143Y-107795786D01*
X56660143Y-107795786D01*
G37*
X56660143Y-107795786D02*
X56859714Y-107795786D01*
X56859714Y-107895571D01*
X56660143Y-107895571D01*
X56660143Y-108194929D01*
X56859714Y-108194929D01*
X56859714Y-108294714D01*
X56694161Y-108294139D01*
X56639883Y-108293528D01*
X56590826Y-108292182D01*
X56550304Y-108290256D01*
X56521634Y-108287903D01*
X56508725Y-108285556D01*
X56492112Y-108277109D01*
X56479408Y-108265277D01*
X56470011Y-108247645D01*
X56463321Y-108221798D01*
X56458737Y-108185321D01*
X56455658Y-108135799D01*
X56453484Y-108070817D01*
X56453274Y-108062611D01*
X56449089Y-107895571D01*
X56251928Y-107895571D01*
X56251928Y-107795786D01*
X56451500Y-107795786D01*
X56451500Y-107696000D01*
X56660143Y-107696000D01*
X56660143Y-107795786D01*
G36*
X55723518Y-107795920D02*
G01*
X55808622Y-107796194D01*
X55877036Y-107796964D01*
X55930205Y-107798286D01*
X55969576Y-107800218D01*
X55996597Y-107802816D01*
X56012712Y-107806137D01*
X56016071Y-107807495D01*
X56029194Y-107816158D01*
X56039506Y-107828762D01*
X56047338Y-107847386D01*
X56053025Y-107874110D01*
X56056897Y-107911014D01*
X56059286Y-107960178D01*
X56060525Y-108023681D01*
X56060916Y-108088339D01*
X56061428Y-108294714D01*
X55861857Y-108294714D01*
X55861857Y-107895571D01*
X55662286Y-107895571D01*
X55662286Y-108294714D01*
X55453643Y-108294714D01*
X55453643Y-107795786D01*
X55723518Y-107795920D01*
X55723518Y-107795920D01*
G37*
X55723518Y-107795920D02*
X55808622Y-107796194D01*
X55877036Y-107796964D01*
X55930205Y-107798286D01*
X55969576Y-107800218D01*
X55996597Y-107802816D01*
X56012712Y-107806137D01*
X56016071Y-107807495D01*
X56029194Y-107816158D01*
X56039506Y-107828762D01*
X56047338Y-107847386D01*
X56053025Y-107874110D01*
X56056897Y-107911014D01*
X56059286Y-107960178D01*
X56060525Y-108023681D01*
X56060916Y-108088339D01*
X56061428Y-108294714D01*
X55861857Y-108294714D01*
X55861857Y-107895571D01*
X55662286Y-107895571D01*
X55662286Y-108294714D01*
X55453643Y-108294714D01*
X55453643Y-107795786D01*
X55723518Y-107795920D01*
G36*
X55063571Y-108194929D02*
G01*
X55163357Y-108194929D01*
X55163357Y-108294714D01*
X54755143Y-108294714D01*
X54755143Y-108194929D01*
X54854928Y-108194929D01*
X54854928Y-107895571D01*
X54755143Y-107895571D01*
X54755143Y-107795786D01*
X55063571Y-107795786D01*
X55063571Y-108194929D01*
X55063571Y-108194929D01*
G37*
X55063571Y-108194929D02*
X55163357Y-108194929D01*
X55163357Y-108294714D01*
X54755143Y-108294714D01*
X54755143Y-108194929D01*
X54854928Y-108194929D01*
X54854928Y-107895571D01*
X54755143Y-107895571D01*
X54755143Y-107795786D01*
X55063571Y-107795786D01*
X55063571Y-108194929D01*
G36*
X54065714Y-108095757D02*
G01*
X54260750Y-108090607D01*
X54263164Y-107843411D01*
X54265577Y-107596214D01*
X54464857Y-107596214D01*
X54464857Y-108090903D01*
X54362662Y-108192809D01*
X54260466Y-108294714D01*
X54060883Y-108294714D01*
X53958977Y-108192519D01*
X53857071Y-108090323D01*
X53857071Y-107596214D01*
X54065714Y-107596214D01*
X54065714Y-108095757D01*
X54065714Y-108095757D01*
G37*
X54065714Y-108095757D02*
X54260750Y-108090607D01*
X54263164Y-107843411D01*
X54265577Y-107596214D01*
X54464857Y-107596214D01*
X54464857Y-108090903D01*
X54362662Y-108192809D01*
X54260466Y-108294714D01*
X54060883Y-108294714D01*
X53958977Y-108192519D01*
X53857071Y-108090323D01*
X53857071Y-107596214D01*
X54065714Y-107596214D01*
X54065714Y-108095757D01*
G36*
X70648286Y-108367286D02*
G01*
X67908714Y-108367286D01*
X67908714Y-108294714D01*
X70648286Y-108294714D01*
X70648286Y-108367286D01*
X70648286Y-108367286D01*
G37*
X70648286Y-108367286D02*
X67908714Y-108367286D01*
X67908714Y-108294714D01*
X70648286Y-108294714D01*
X70648286Y-108367286D01*
G36*
X62347929Y-108102861D02*
G01*
X62347459Y-108176555D01*
X62346101Y-108238867D01*
X62343927Y-108288060D01*
X62341011Y-108322396D01*
X62337874Y-108338993D01*
X62329918Y-108357073D01*
X62318726Y-108370790D01*
X62301914Y-108380731D01*
X62277098Y-108387483D01*
X62241893Y-108391633D01*
X62193918Y-108393769D01*
X62130787Y-108394477D01*
X62112522Y-108394500D01*
X61948786Y-108394500D01*
X61948786Y-108294714D01*
X62148357Y-108294714D01*
X62148357Y-107895571D01*
X62347929Y-107895571D01*
X62347929Y-108102861D01*
X62347929Y-108102861D01*
G37*
X62347929Y-108102861D02*
X62347459Y-108176555D01*
X62346101Y-108238867D01*
X62343927Y-108288060D01*
X62341011Y-108322396D01*
X62337874Y-108338993D01*
X62329918Y-108357073D01*
X62318726Y-108370790D01*
X62301914Y-108380731D01*
X62277098Y-108387483D01*
X62241893Y-108391633D01*
X62193918Y-108393769D01*
X62130787Y-108394477D01*
X62112522Y-108394500D01*
X61948786Y-108394500D01*
X61948786Y-108294714D01*
X62148357Y-108294714D01*
X62148357Y-107895571D01*
X62347929Y-107895571D01*
X62347929Y-108102861D01*
G36*
X58456286Y-108052968D02*
G01*
X58455902Y-108139799D01*
X58454773Y-108212355D01*
X58452930Y-108269734D01*
X58450405Y-108311036D01*
X58447229Y-108335358D01*
X58446231Y-108338993D01*
X58440306Y-108353898D01*
X58432749Y-108365868D01*
X58421656Y-108375226D01*
X58405122Y-108382290D01*
X58381243Y-108387383D01*
X58348114Y-108390825D01*
X58303829Y-108392936D01*
X58246485Y-108394037D01*
X58174177Y-108394450D01*
X58116558Y-108394500D01*
X57848500Y-108394500D01*
X57848500Y-108294714D01*
X58256714Y-108294714D01*
X58256714Y-108196007D01*
X58079018Y-108193200D01*
X57901321Y-108190393D01*
X57879446Y-108164941D01*
X57871294Y-108154717D01*
X57865476Y-108143981D01*
X57861605Y-108129656D01*
X57859296Y-108108668D01*
X57858166Y-108077940D01*
X57857827Y-108034399D01*
X57857860Y-107992584D01*
X57858608Y-107927612D01*
X57859947Y-107895571D01*
X58057143Y-107895571D01*
X58057143Y-108095143D01*
X58256714Y-108095143D01*
X58256714Y-107895571D01*
X58057143Y-107895571D01*
X57859947Y-107895571D01*
X57860606Y-107879828D01*
X57863917Y-107848313D01*
X57868607Y-107832151D01*
X57869199Y-107831285D01*
X57877729Y-107821452D01*
X57887919Y-107813618D01*
X57901796Y-107807556D01*
X57921384Y-107803041D01*
X57948708Y-107799848D01*
X57985793Y-107797752D01*
X58034666Y-107796527D01*
X58097350Y-107795947D01*
X58175871Y-107795787D01*
X58188082Y-107795786D01*
X58456286Y-107795786D01*
X58456286Y-108052968D01*
X58456286Y-108052968D01*
G37*
X58456286Y-108052968D02*
X58455902Y-108139799D01*
X58454773Y-108212355D01*
X58452930Y-108269734D01*
X58450405Y-108311036D01*
X58447229Y-108335358D01*
X58446231Y-108338993D01*
X58440306Y-108353898D01*
X58432749Y-108365868D01*
X58421656Y-108375226D01*
X58405122Y-108382290D01*
X58381243Y-108387383D01*
X58348114Y-108390825D01*
X58303829Y-108392936D01*
X58246485Y-108394037D01*
X58174177Y-108394450D01*
X58116558Y-108394500D01*
X57848500Y-108394500D01*
X57848500Y-108294714D01*
X58256714Y-108294714D01*
X58256714Y-108196007D01*
X58079018Y-108193200D01*
X57901321Y-108190393D01*
X57879446Y-108164941D01*
X57871294Y-108154717D01*
X57865476Y-108143981D01*
X57861605Y-108129656D01*
X57859296Y-108108668D01*
X57858166Y-108077940D01*
X57857827Y-108034399D01*
X57857860Y-107992584D01*
X57858608Y-107927612D01*
X57859947Y-107895571D01*
X58057143Y-107895571D01*
X58057143Y-108095143D01*
X58256714Y-108095143D01*
X58256714Y-107895571D01*
X58057143Y-107895571D01*
X57859947Y-107895571D01*
X57860606Y-107879828D01*
X57863917Y-107848313D01*
X57868607Y-107832151D01*
X57869199Y-107831285D01*
X57877729Y-107821452D01*
X57887919Y-107813618D01*
X57901796Y-107807556D01*
X57921384Y-107803041D01*
X57948708Y-107799848D01*
X57985793Y-107797752D01*
X58034666Y-107796527D01*
X58097350Y-107795947D01*
X58175871Y-107795787D01*
X58188082Y-107795786D01*
X58456286Y-107795786D01*
X58456286Y-108052968D01*
D15*
X53857071Y-108950000D02*
G75*
G02X53857071Y-106950000I0J1000000D01*
G01*
X53857071Y-106950000D02*
X70602929Y-106950000D01*
X53857071Y-108950000D02*
X70602929Y-108950000D01*
X70602929Y-108950000D02*
G75*
G03X70602929Y-106950000I0J1000000D01*
G01*
M02*
