G04 #@! TF.GenerationSoftware,KiCad,Pcbnew,(5.1.4)-1*
G04 #@! TF.CreationDate,2020-10-12T21:25:16+02:00*
G04 #@! TF.ProjectId,BreadBoard PCB 400,42726561-6442-46f6-9172-642050434220,rev?*
G04 #@! TF.SameCoordinates,Original*
G04 #@! TF.FileFunction,Copper,L2,Bot*
G04 #@! TF.FilePolarity,Positive*
%FSLAX46Y46*%
G04 Gerber Fmt 4.6, Leading zero omitted, Abs format (unit mm)*
G04 Created by KiCad (PCBNEW (5.1.4)-1) date 2020-10-12 21:25:16*
%MOMM*%
%LPD*%
G04 APERTURE LIST*
%ADD10C,0.300000*%
%ADD11O,2.000000X2.000000*%
G04 APERTURE END LIST*
D10*
X127448571Y-128524285D02*
X128948571Y-129024285D01*
X127448571Y-129524285D01*
X128948571Y-130810000D02*
X128948571Y-129952857D01*
X128948571Y-130381428D02*
X127448571Y-130381428D01*
X127662857Y-130238571D01*
X127805714Y-130095714D01*
X127877142Y-129952857D01*
X128805714Y-131452857D02*
X128877142Y-131524285D01*
X128948571Y-131452857D01*
X128877142Y-131381428D01*
X128805714Y-131452857D01*
X128948571Y-131452857D01*
X128948571Y-132952857D02*
X128948571Y-132095714D01*
X128948571Y-132524285D02*
X127448571Y-132524285D01*
X127662857Y-132381428D01*
X127805714Y-132238571D01*
X127877142Y-132095714D01*
D11*
X115570000Y-129540000D03*
X118110000Y-129540000D03*
X120650000Y-129540000D03*
X123190000Y-129540000D03*
X125730000Y-129540000D03*
X125730000Y-132080000D03*
X123190000Y-132080000D03*
X120650000Y-132080000D03*
X118110000Y-132080000D03*
X115570000Y-132080000D03*
X95250000Y-132080000D03*
X92710000Y-132080000D03*
X90170000Y-132080000D03*
X87630000Y-132080000D03*
X85090000Y-132080000D03*
X85090000Y-129540000D03*
X87630000Y-129540000D03*
X90170000Y-129540000D03*
X92710000Y-129540000D03*
X95250000Y-129540000D03*
X100330000Y-132080000D03*
X102870000Y-132080000D03*
X105410000Y-132080000D03*
X107950000Y-132080000D03*
X110490000Y-132080000D03*
X110490000Y-129540000D03*
X107950000Y-129540000D03*
X105410000Y-129540000D03*
X102870000Y-129540000D03*
X100330000Y-129540000D03*
X54610000Y-129540000D03*
X57150000Y-129540000D03*
X59690000Y-129540000D03*
X62230000Y-129540000D03*
X64770000Y-129540000D03*
X64770000Y-132080000D03*
X62230000Y-132080000D03*
X59690000Y-132080000D03*
X57150000Y-132080000D03*
X54610000Y-132080000D03*
X80010000Y-129540000D03*
X77470000Y-129540000D03*
X74930000Y-129540000D03*
X72390000Y-129540000D03*
X69850000Y-129540000D03*
X69850000Y-132080000D03*
X72390000Y-132080000D03*
X74930000Y-132080000D03*
X77470000Y-132080000D03*
X80010000Y-132080000D03*
X115570000Y-86360000D03*
X118110000Y-86360000D03*
X120650000Y-86360000D03*
X123190000Y-86360000D03*
X125730000Y-86360000D03*
X125730000Y-83820000D03*
X123190000Y-83820000D03*
X120650000Y-83820000D03*
X118110000Y-83820000D03*
X115570000Y-83820000D03*
X110490000Y-86360000D03*
X107950000Y-86360000D03*
X105410000Y-86360000D03*
X102870000Y-86360000D03*
X100330000Y-86360000D03*
X100330000Y-83820000D03*
X102870000Y-83820000D03*
X105410000Y-83820000D03*
X107950000Y-83820000D03*
X110490000Y-83820000D03*
X95250000Y-83820000D03*
X92710000Y-83820000D03*
X90170000Y-83820000D03*
X87630000Y-83820000D03*
X85090000Y-83820000D03*
X85090000Y-86360000D03*
X87630000Y-86360000D03*
X90170000Y-86360000D03*
X92710000Y-86360000D03*
X95250000Y-86360000D03*
X69850000Y-83820000D03*
X72390000Y-83820000D03*
X74930000Y-83820000D03*
X77470000Y-83820000D03*
X80010000Y-83820000D03*
X80010000Y-86360000D03*
X77470000Y-86360000D03*
X74930000Y-86360000D03*
X72390000Y-86360000D03*
X69850000Y-86360000D03*
X54610000Y-86360000D03*
X57150000Y-86360000D03*
X59690000Y-86360000D03*
X62230000Y-86360000D03*
X64770000Y-86360000D03*
X64770000Y-83820000D03*
X62230000Y-83820000D03*
X59690000Y-83820000D03*
X57150000Y-83820000D03*
X54610000Y-83820000D03*
X127000000Y-111760000D03*
X127000000Y-114300000D03*
X127000000Y-116840000D03*
X127000000Y-119380000D03*
X127000000Y-121920000D03*
X58420000Y-121920000D03*
X58420000Y-119380000D03*
X58420000Y-116840000D03*
X58420000Y-114300000D03*
X58420000Y-111760000D03*
X60960000Y-111760000D03*
X60960000Y-114300000D03*
X60960000Y-116840000D03*
X60960000Y-119380000D03*
X60960000Y-121920000D03*
X55880000Y-111760000D03*
X55880000Y-114300000D03*
X55880000Y-116840000D03*
X55880000Y-119380000D03*
X55880000Y-121920000D03*
X53340000Y-121920000D03*
X53340000Y-119380000D03*
X53340000Y-116840000D03*
X53340000Y-114300000D03*
X53340000Y-111760000D03*
X106680000Y-121920000D03*
X106680000Y-119380000D03*
X106680000Y-116840000D03*
X106680000Y-114300000D03*
X106680000Y-111760000D03*
X124460000Y-121920000D03*
X124460000Y-119380000D03*
X124460000Y-116840000D03*
X124460000Y-114300000D03*
X124460000Y-111760000D03*
X99060000Y-121920000D03*
X99060000Y-119380000D03*
X99060000Y-116840000D03*
X99060000Y-114300000D03*
X99060000Y-111760000D03*
X121920000Y-121920000D03*
X121920000Y-119380000D03*
X121920000Y-116840000D03*
X121920000Y-114300000D03*
X121920000Y-111760000D03*
X101600000Y-121920000D03*
X101600000Y-119380000D03*
X101600000Y-116840000D03*
X101600000Y-114300000D03*
X101600000Y-111760000D03*
X119380000Y-121920000D03*
X119380000Y-119380000D03*
X119380000Y-116840000D03*
X119380000Y-114300000D03*
X119380000Y-111760000D03*
X116840000Y-121920000D03*
X116840000Y-119380000D03*
X116840000Y-116840000D03*
X116840000Y-114300000D03*
X116840000Y-111760000D03*
X114300000Y-121920000D03*
X114300000Y-119380000D03*
X114300000Y-116840000D03*
X114300000Y-114300000D03*
X114300000Y-111760000D03*
X96520000Y-121920000D03*
X96520000Y-119380000D03*
X96520000Y-116840000D03*
X96520000Y-114300000D03*
X96520000Y-111760000D03*
X111760000Y-121920000D03*
X111760000Y-119380000D03*
X111760000Y-116840000D03*
X111760000Y-114300000D03*
X111760000Y-111760000D03*
X109220000Y-121920000D03*
X109220000Y-119380000D03*
X109220000Y-116840000D03*
X109220000Y-114300000D03*
X109220000Y-111760000D03*
X104140000Y-121920000D03*
X104140000Y-119380000D03*
X104140000Y-116840000D03*
X104140000Y-114300000D03*
X104140000Y-111760000D03*
X93980000Y-121920000D03*
X93980000Y-119380000D03*
X93980000Y-116840000D03*
X93980000Y-114300000D03*
X93980000Y-111760000D03*
X91440000Y-121920000D03*
X91440000Y-119380000D03*
X91440000Y-116840000D03*
X91440000Y-114300000D03*
X91440000Y-111760000D03*
X86360000Y-121920000D03*
X86360000Y-119380000D03*
X86360000Y-116840000D03*
X86360000Y-114300000D03*
X86360000Y-111760000D03*
X83820000Y-121920000D03*
X83820000Y-119380000D03*
X83820000Y-116840000D03*
X83820000Y-114300000D03*
X83820000Y-111760000D03*
X81280000Y-121920000D03*
X81280000Y-119380000D03*
X81280000Y-116840000D03*
X81280000Y-114300000D03*
X81280000Y-111760000D03*
X78740000Y-121920000D03*
X78740000Y-119380000D03*
X78740000Y-116840000D03*
X78740000Y-114300000D03*
X78740000Y-111760000D03*
X76200000Y-121920000D03*
X76200000Y-119380000D03*
X76200000Y-116840000D03*
X76200000Y-114300000D03*
X76200000Y-111760000D03*
X73660000Y-121920000D03*
X73660000Y-119380000D03*
X73660000Y-116840000D03*
X73660000Y-114300000D03*
X73660000Y-111760000D03*
X68580000Y-121920000D03*
X68580000Y-119380000D03*
X68580000Y-116840000D03*
X68580000Y-114300000D03*
X68580000Y-111760000D03*
X66040000Y-121920000D03*
X66040000Y-119380000D03*
X66040000Y-116840000D03*
X66040000Y-114300000D03*
X66040000Y-111760000D03*
X71120000Y-121920000D03*
X71120000Y-119380000D03*
X71120000Y-116840000D03*
X71120000Y-114300000D03*
X71120000Y-111760000D03*
X88900000Y-121920000D03*
X88900000Y-119380000D03*
X88900000Y-116840000D03*
X88900000Y-114300000D03*
X88900000Y-111760000D03*
X63500000Y-121920000D03*
X63500000Y-119380000D03*
X63500000Y-116840000D03*
X63500000Y-114300000D03*
X63500000Y-111760000D03*
X127000000Y-104140000D03*
X127000000Y-101600000D03*
X127000000Y-99060000D03*
X127000000Y-96520000D03*
X127000000Y-93980000D03*
X124460000Y-93980000D03*
X124460000Y-96520000D03*
X124460000Y-99060000D03*
X124460000Y-101600000D03*
X124460000Y-104140000D03*
X121920000Y-93980000D03*
X121920000Y-96520000D03*
X121920000Y-99060000D03*
X121920000Y-101600000D03*
X121920000Y-104140000D03*
X119380000Y-93980000D03*
X119380000Y-96520000D03*
X119380000Y-99060000D03*
X119380000Y-101600000D03*
X119380000Y-104140000D03*
X116840000Y-93980000D03*
X116840000Y-96520000D03*
X116840000Y-99060000D03*
X116840000Y-101600000D03*
X116840000Y-104140000D03*
X114300000Y-93980000D03*
X114300000Y-96520000D03*
X114300000Y-99060000D03*
X114300000Y-101600000D03*
X114300000Y-104140000D03*
X111760000Y-93980000D03*
X111760000Y-96520000D03*
X111760000Y-99060000D03*
X111760000Y-101600000D03*
X111760000Y-104140000D03*
X109220000Y-93980000D03*
X109220000Y-96520000D03*
X109220000Y-99060000D03*
X109220000Y-101600000D03*
X109220000Y-104140000D03*
X106680000Y-93980000D03*
X106680000Y-96520000D03*
X106680000Y-99060000D03*
X106680000Y-101600000D03*
X106680000Y-104140000D03*
X104140000Y-93980000D03*
X104140000Y-96520000D03*
X104140000Y-99060000D03*
X104140000Y-101600000D03*
X104140000Y-104140000D03*
X101600000Y-93980000D03*
X101600000Y-96520000D03*
X101600000Y-99060000D03*
X101600000Y-101600000D03*
X101600000Y-104140000D03*
X99060000Y-93980000D03*
X99060000Y-96520000D03*
X99060000Y-99060000D03*
X99060000Y-101600000D03*
X99060000Y-104140000D03*
X96520000Y-93980000D03*
X96520000Y-96520000D03*
X96520000Y-99060000D03*
X96520000Y-101600000D03*
X96520000Y-104140000D03*
X93980000Y-93980000D03*
X93980000Y-96520000D03*
X93980000Y-99060000D03*
X93980000Y-101600000D03*
X93980000Y-104140000D03*
X91440000Y-93980000D03*
X91440000Y-96520000D03*
X91440000Y-99060000D03*
X91440000Y-101600000D03*
X91440000Y-104140000D03*
X88900000Y-93980000D03*
X88900000Y-96520000D03*
X88900000Y-99060000D03*
X88900000Y-101600000D03*
X88900000Y-104140000D03*
X86360000Y-93980000D03*
X86360000Y-96520000D03*
X86360000Y-99060000D03*
X86360000Y-101600000D03*
X86360000Y-104140000D03*
X83820000Y-93980000D03*
X83820000Y-96520000D03*
X83820000Y-99060000D03*
X83820000Y-101600000D03*
X83820000Y-104140000D03*
X81280000Y-93980000D03*
X81280000Y-96520000D03*
X81280000Y-99060000D03*
X81280000Y-101600000D03*
X81280000Y-104140000D03*
X78740000Y-93980000D03*
X78740000Y-96520000D03*
X78740000Y-99060000D03*
X78740000Y-101600000D03*
X78740000Y-104140000D03*
X76200000Y-93980000D03*
X76200000Y-96520000D03*
X76200000Y-99060000D03*
X76200000Y-101600000D03*
X76200000Y-104140000D03*
X73660000Y-93980000D03*
X73660000Y-96520000D03*
X73660000Y-99060000D03*
X73660000Y-101600000D03*
X73660000Y-104140000D03*
X71120000Y-93980000D03*
X71120000Y-96520000D03*
X71120000Y-99060000D03*
X71120000Y-101600000D03*
X71120000Y-104140000D03*
X68580000Y-93980000D03*
X68580000Y-96520000D03*
X68580000Y-99060000D03*
X68580000Y-101600000D03*
X68580000Y-104140000D03*
X66040000Y-93980000D03*
X66040000Y-96520000D03*
X66040000Y-99060000D03*
X66040000Y-101600000D03*
X66040000Y-104140000D03*
X63500000Y-93980000D03*
X63500000Y-96520000D03*
X63500000Y-99060000D03*
X63500000Y-101600000D03*
X63500000Y-104140000D03*
X60960000Y-104140000D03*
X60960000Y-101600000D03*
X60960000Y-99060000D03*
X60960000Y-96520000D03*
X60960000Y-93980000D03*
X58420000Y-93980000D03*
X58420000Y-96520000D03*
X58420000Y-99060000D03*
X58420000Y-101600000D03*
X58420000Y-104140000D03*
X55880000Y-104140000D03*
X55880000Y-101600000D03*
X55880000Y-99060000D03*
X55880000Y-96520000D03*
X55880000Y-93980000D03*
X53340000Y-93980000D03*
X53340000Y-96520000D03*
X53340000Y-99060000D03*
X53340000Y-101600000D03*
X53340000Y-104140000D03*
M02*
