M48
; DRILL file {KiCad (5.1.4)-1} date 12/10/2020 21:25:19
; FORMAT={-:-/ absolute / inch / decimal}
; #@! TF.CreationDate,2020-10-12T21:25:19+02:00
; #@! TF.GenerationSoftware,Kicad,Pcbnew,(5.1.4)-1
; #@! TF.FileFunction,Plated,1,2,PTH
FMAT,2
INCH
T1C0.0394
%
G90
G05
T1
X3.8Y-4.4
X3.8Y-4.5
X3.8Y-4.6
X3.8Y-4.7
X3.8Y-4.8
X3.2Y-3.7
X3.2Y-3.8
X3.2Y-3.9
X3.2Y-4.0
X3.2Y-4.1
X4.1Y-4.4
X4.1Y-4.5
X4.1Y-4.6
X4.1Y-4.7
X4.1Y-4.8
X2.3Y-3.7
X2.3Y-3.8
X2.3Y-3.9
X2.3Y-4.0
X2.3Y-4.1
X4.55Y-3.3
X4.65Y-3.3
X4.75Y-3.3
X4.85Y-3.3
X4.95Y-3.3
X3.4Y-4.4
X3.4Y-4.5
X3.4Y-4.6
X3.4Y-4.7
X3.4Y-4.8
X4.7Y-4.4
X4.7Y-4.5
X4.7Y-4.6
X4.7Y-4.7
X4.7Y-4.8
X4.8Y-3.7
X4.8Y-3.8
X4.8Y-3.9
X4.8Y-4.0
X4.8Y-4.1
X3.35Y-3.3
X3.45Y-3.3
X3.55Y-3.3
X3.65Y-3.3
X3.75Y-3.3
X4.55Y-5.2
X4.65Y-5.2
X4.75Y-5.2
X4.85Y-5.2
X4.95Y-5.2
X2.5Y-4.4
X2.5Y-4.5
X2.5Y-4.6
X2.5Y-4.7
X2.5Y-4.8
X3.5Y-3.7
X3.5Y-3.8
X3.5Y-3.9
X3.5Y-4.0
X3.5Y-4.1
X2.3Y-4.4
X2.3Y-4.5
X2.3Y-4.6
X2.3Y-4.7
X2.3Y-4.8
X4.0Y-3.7
X4.0Y-3.8
X4.0Y-3.9
X4.0Y-4.0
X4.0Y-4.1
X2.75Y-5.2
X2.85Y-5.2
X2.95Y-5.2
X3.05Y-5.2
X3.15Y-5.2
X2.9Y-4.4
X2.9Y-4.5
X2.9Y-4.6
X2.9Y-4.7
X2.9Y-4.8
X3.3Y-3.7
X3.3Y-3.8
X3.3Y-3.9
X3.3Y-4.0
X3.3Y-4.1
X4.9Y-4.4
X4.9Y-4.5
X4.9Y-4.6
X4.9Y-4.7
X4.9Y-4.8
X5.0Y-3.7
X5.0Y-3.8
X5.0Y-3.9
X5.0Y-4.0
X5.0Y-4.1
X2.9Y-3.7
X2.9Y-3.8
X2.9Y-3.9
X2.9Y-4.0
X2.9Y-4.1
X5.0Y-4.4
X5.0Y-4.5
X5.0Y-4.6
X5.0Y-4.7
X5.0Y-4.8
X2.4Y-4.4
X2.4Y-4.5
X2.4Y-4.6
X2.4Y-4.7
X2.4Y-4.8
X3.7Y-3.7
X3.7Y-3.8
X3.7Y-3.9
X3.7Y-4.0
X3.7Y-4.1
X2.15Y-5.2
X2.25Y-5.2
X2.35Y-5.2
X2.45Y-5.2
X2.55Y-5.2
X4.6Y-4.4
X4.6Y-4.5
X4.6Y-4.6
X4.6Y-4.7
X4.6Y-4.8
X4.5Y-3.7
X4.5Y-3.8
X4.5Y-3.9
X4.5Y-4.0
X4.5Y-4.1
X2.75Y-5.1
X2.85Y-5.1
X2.95Y-5.1
X3.05Y-5.1
X3.15Y-5.1
X4.4Y-4.4
X4.4Y-4.5
X4.4Y-4.6
X4.4Y-4.7
X4.4Y-4.8
X2.7Y-3.7
X2.7Y-3.8
X2.7Y-3.9
X2.7Y-4.0
X2.7Y-4.1
X2.75Y-3.3
X2.85Y-3.3
X2.95Y-3.3
X3.05Y-3.3
X3.15Y-3.3
X3.7Y-4.4
X3.7Y-4.5
X3.7Y-4.6
X3.7Y-4.7
X3.7Y-4.8
X3.95Y-5.1
X4.05Y-5.1
X4.15Y-5.1
X4.25Y-5.1
X4.35Y-5.1
X3.3Y-4.4
X3.3Y-4.5
X3.3Y-4.6
X3.3Y-4.7
X3.3Y-4.8
X2.4Y-3.7
X2.4Y-3.8
X2.4Y-3.9
X2.4Y-4.0
X2.4Y-4.1
X3.2Y-4.4
X3.2Y-4.5
X3.2Y-4.6
X3.2Y-4.7
X3.2Y-4.8
X3.9Y-3.7
X3.9Y-3.8
X3.9Y-3.9
X3.9Y-4.0
X3.9Y-4.1
X3.35Y-3.4
X3.45Y-3.4
X3.55Y-3.4
X3.65Y-3.4
X3.75Y-3.4
X4.55Y-5.1
X4.65Y-5.1
X4.75Y-5.1
X4.85Y-5.1
X4.95Y-5.1
X2.6Y-4.4
X2.6Y-4.5
X2.6Y-4.6
X2.6Y-4.7
X2.6Y-4.8
X2.2Y-4.4
X2.2Y-4.5
X2.2Y-4.6
X2.2Y-4.7
X2.2Y-4.8
X4.6Y-3.7
X4.6Y-3.8
X4.6Y-3.9
X4.6Y-4.0
X4.6Y-4.1
X3.5Y-4.4
X3.5Y-4.5
X3.5Y-4.6
X3.5Y-4.7
X3.5Y-4.8
X2.6Y-3.7
X2.6Y-3.8
X2.6Y-3.9
X2.6Y-4.0
X2.6Y-4.1
X2.15Y-3.4
X2.25Y-3.4
X2.35Y-3.4
X2.45Y-3.4
X2.55Y-3.4
X3.1Y-3.7
X3.1Y-3.8
X3.1Y-3.9
X3.1Y-4.0
X3.1Y-4.1
X3.0Y-4.4
X3.0Y-4.5
X3.0Y-4.6
X3.0Y-4.7
X3.0Y-4.8
X2.1Y-3.7
X2.1Y-3.8
X2.1Y-3.9
X2.1Y-4.0
X2.1Y-4.1
X2.1Y-4.4
X2.1Y-4.5
X2.1Y-4.6
X2.1Y-4.7
X2.1Y-4.8
X4.7Y-3.7
X4.7Y-3.8
X4.7Y-3.9
X4.7Y-4.0
X4.7Y-4.1
X3.8Y-3.7
X3.8Y-3.8
X3.8Y-3.9
X3.8Y-4.0
X3.8Y-4.1
X3.9Y-4.4
X3.9Y-4.5
X3.9Y-4.6
X3.9Y-4.7
X3.9Y-4.8
X4.3Y-3.7
X4.3Y-3.8
X4.3Y-3.9
X4.3Y-4.0
X4.3Y-4.1
X4.5Y-4.4
X4.5Y-4.5
X4.5Y-4.6
X4.5Y-4.7
X4.5Y-4.8
X3.6Y-3.7
X3.6Y-3.8
X3.6Y-3.9
X3.6Y-4.0
X3.6Y-4.1
X3.95Y-3.3
X4.05Y-3.3
X4.15Y-3.3
X4.25Y-3.3
X4.35Y-3.3
X3.95Y-3.4
X4.05Y-3.4
X4.15Y-3.4
X4.25Y-3.4
X4.35Y-3.4
X4.3Y-4.4
X4.3Y-4.5
X4.3Y-4.6
X4.3Y-4.7
X4.3Y-4.8
X2.5Y-3.7
X2.5Y-3.8
X2.5Y-3.9
X2.5Y-4.0
X2.5Y-4.1
X3.6Y-4.4
X3.6Y-4.5
X3.6Y-4.6
X3.6Y-4.7
X3.6Y-4.8
X4.2Y-3.7
X4.2Y-3.8
X4.2Y-3.9
X4.2Y-4.0
X4.2Y-4.1
X3.35Y-5.1
X3.45Y-5.1
X3.55Y-5.1
X3.65Y-5.1
X3.75Y-5.1
X3.1Y-4.4
X3.1Y-4.5
X3.1Y-4.6
X3.1Y-4.7
X3.1Y-4.8
X3.4Y-3.7
X3.4Y-3.8
X3.4Y-3.9
X3.4Y-4.0
X3.4Y-4.1
X3.95Y-5.2
X4.05Y-5.2
X4.15Y-5.2
X4.25Y-5.2
X4.35Y-5.2
X4.9Y-3.7
X4.9Y-3.8
X4.9Y-3.9
X4.9Y-4.0
X4.9Y-4.1
X2.15Y-3.3
X2.25Y-3.3
X2.35Y-3.3
X2.45Y-3.3
X2.55Y-3.3
X2.15Y-5.1
X2.25Y-5.1
X2.35Y-5.1
X2.45Y-5.1
X2.55Y-5.1
X2.8Y-4.4
X2.8Y-4.5
X2.8Y-4.6
X2.8Y-4.7
X2.8Y-4.8
X4.4Y-3.7
X4.4Y-3.8
X4.4Y-3.9
X4.4Y-4.0
X4.4Y-4.1
X4.2Y-4.4
X4.2Y-4.5
X4.2Y-4.6
X4.2Y-4.7
X4.2Y-4.8
X3.35Y-5.2
X3.45Y-5.2
X3.55Y-5.2
X3.65Y-5.2
X3.75Y-5.2
X2.7Y-4.4
X2.7Y-4.5
X2.7Y-4.6
X2.7Y-4.7
X2.7Y-4.8
X2.75Y-3.4
X2.85Y-3.4
X2.95Y-3.4
X3.05Y-3.4
X3.15Y-3.4
X3.0Y-3.7
X3.0Y-3.8
X3.0Y-3.9
X3.0Y-4.0
X3.0Y-4.1
X4.8Y-4.4
X4.8Y-4.5
X4.8Y-4.6
X4.8Y-4.7
X4.8Y-4.8
X2.8Y-3.7
X2.8Y-3.8
X2.8Y-3.9
X2.8Y-4.0
X2.8Y-4.1
X2.2Y-3.7
X2.2Y-3.8
X2.2Y-3.9
X2.2Y-4.0
X2.2Y-4.1
X4.0Y-4.4
X4.0Y-4.5
X4.0Y-4.6
X4.0Y-4.7
X4.0Y-4.8
X4.1Y-3.7
X4.1Y-3.8
X4.1Y-3.9
X4.1Y-4.0
X4.1Y-4.1
X4.55Y-3.4
X4.65Y-3.4
X4.75Y-3.4
X4.85Y-3.4
X4.95Y-3.4
T0
M30
